<svg width="335" height="340" viewBox="0 0 335 340" fill="none" xmlns="http://www.w3.org/2000/svg">
<path d="M85.0641 0L80.3384 2.09703L313.473 339.718L318.573 337.587V155.581V133.997L85.0641 0Z" fill="#0091F4"/>
<path d="M80.2651 2.13135V23.7281V205.721L313.774 339.718V157.713V136.129L80.2651 2.13135Z" fill="#2EB4FF"/>
<path d="M221.882 97.1081L141.423 50.8844C140.754 50.4082 140.207 49.7826 139.825 49.0578C139.444 48.333 139.239 47.5293 139.227 46.7115C139.227 45.1065 140.209 44.3618 141.423 45.0551L221.882 91.2788C222.551 91.755 223.098 92.3807 223.48 93.1055C223.861 93.8302 224.066 94.6339 224.078 95.4518C224.078 97.0696 223.096 97.8015 221.882 97.1081Z" fill="#C4C4DC"/>
<path d="M115.301 215.081L30.5015 166.418V107.149L115.301 155.812V215.081Z" fill="#F9F9F9"/>
<path d="M52.1405 138.556C52.1405 141.342 50.164 142.408 47.7352 141.124C46.4574 140.294 45.3941 139.177 44.631 137.863C43.8679 136.55 43.4266 135.076 43.3428 133.561C43.3428 130.775 45.3194 129.709 47.7352 130.993C49.0168 131.82 50.0838 132.936 50.8493 134.25C51.6149 135.564 52.0573 137.04 52.1405 138.556Z" fill="#4AC8FF"/>
<path d="M101.026 168.498L57.8508 143.717C57.4173 143.41 57.0627 143.006 56.8158 142.538C56.5689 142.069 56.4366 141.549 56.4297 141.021C56.4297 139.981 57.0627 139.493 57.8508 139.955L101.026 164.723C101.458 165.034 101.811 165.441 102.058 165.911C102.305 166.381 102.438 166.902 102.447 167.432C102.447 168.472 101.814 168.947 101.026 168.498Z" fill="#C4C4DC"/>
<path d="M52.1405 152.885C52.1405 155.658 50.164 156.737 47.7352 155.453C46.4582 154.622 45.3953 153.505 44.6324 152.192C43.8694 150.878 43.4277 149.404 43.3428 147.89C43.3428 145.104 45.3194 144.038 47.7352 145.322C49.0139 146.152 50.0787 147.268 50.8439 148.582C51.6091 149.896 52.0532 151.369 52.1405 152.885Z" fill="#0091F4"/>
<path d="M101.026 182.815L57.8508 158.034C57.4173 157.727 57.0627 157.323 56.8158 156.854C56.5689 156.386 56.4366 155.866 56.4297 155.337C56.4297 154.297 57.0627 153.822 57.8508 154.272L101.026 179.053C101.459 179.36 101.814 179.764 102.061 180.232C102.308 180.701 102.44 181.22 102.447 181.749C102.447 182.789 101.814 183.264 101.026 182.815Z" fill="#C4C4DC"/>
<path d="M52.1405 167.201C52.1405 169.987 50.164 171.117 47.7352 169.769C46.4579 168.936 45.3951 167.816 44.6322 166.501C43.8693 165.185 43.4277 163.71 43.3428 162.193C43.3428 159.42 45.3194 158.341 47.7352 159.625C49.0171 160.455 50.084 161.573 50.8494 162.89C51.6149 164.206 52.0572 165.683 52.1405 167.201Z" fill="#C4C4DC"/>
<path d="M101.026 197.144L57.8508 172.363C57.4173 172.056 57.0627 171.652 56.8158 171.184C56.5689 170.715 56.4366 170.196 56.4297 169.667C56.4297 168.627 57.0627 168.152 57.8508 168.601L101.026 193.382C101.459 193.689 101.814 194.093 102.061 194.561C102.308 195.03 102.44 195.55 102.447 196.078C102.447 197.119 101.814 197.594 101.026 197.144Z" fill="#C4C4DC"/>
<path d="M115.288 155.799L30.4758 107.136L33.8993 105.056L118.712 153.719L115.288 155.799Z" fill="#0091F4"/>
<path d="M118.712 213.001L115.288 215.068V155.799L118.712 153.719V213.001Z" fill="#0091F4"/>
<path d="M280.598 243.201V249.518L269.759 236.973L229.207 213.707V182.417L280.598 211.91V243.201Z" fill="#F9F9F9"/>
<path d="M247.384 209.2C247.384 211.486 245.769 212.41 243.78 211.267C242.727 210.588 241.851 209.671 241.222 208.591C240.593 207.511 240.23 206.299 240.162 205.053C240.162 202.767 241.777 201.843 243.78 202.986C244.829 203.668 245.702 204.585 246.329 205.665C246.955 206.745 247.316 207.956 247.384 209.2Z" fill="#C4C4DC"/>
<path d="M258.507 215.582C258.507 217.868 256.892 218.792 254.903 217.65C253.852 216.969 252.979 216.051 252.352 214.971C251.726 213.891 251.365 212.68 251.298 211.435C251.298 209.15 252.913 208.225 254.903 209.368C255.952 210.05 256.826 210.967 257.452 212.047C258.078 213.127 258.439 214.338 258.507 215.582Z" fill="#C4C4DC"/>
<path d="M269.631 221.964C269.631 224.249 268.016 225.174 266.026 224.031C264.977 223.352 264.104 222.436 263.477 221.359C262.851 220.281 262.489 219.072 262.422 217.829C262.422 215.544 264.037 214.606 266.026 215.749C267.076 216.431 267.949 217.349 268.575 218.429C269.201 219.508 269.563 220.719 269.631 221.964Z" fill="#C4C4DC"/>
<path d="M280.585 211.91L229.207 182.417L231.855 180.812L283.247 210.305L280.585 211.91Z" fill="#0091F4"/>
<path d="M283.247 247.913L280.585 249.518V211.91L283.247 210.305V247.913Z" fill="#0091F4"/>
<path d="M209.402 307.169L124.59 258.506V199.224L209.402 247.887V307.169Z" fill="#F9F9F9"/>
<path d="M132.096 252.317C131.932 252.214 131.78 252.094 131.644 251.958C131.328 251.668 131.094 251.301 130.965 250.893C130.835 250.485 130.816 250.051 130.907 249.634C131.14 249.056 136.902 235.24 146.978 236.036C158.425 236.922 171.524 248.632 175.219 252.202C180.916 257.633 193.603 266.39 200.915 260.624C201.367 260.265 202.207 260.624 202.711 261.485C203.214 262.345 203.331 263.282 202.866 263.642C194.675 270.062 180.671 260.509 174.444 254.526C170.93 251.161 158.644 240.145 148.012 239.31C138.969 238.604 133.388 251.919 133.323 252.06C133.065 252.535 132.613 252.612 132.096 252.317Z" fill="#0091F4"/>
<path d="M175.18 271.885C168.721 268.2 165.762 262.447 162.856 256.888C160.595 252.561 158.256 248.08 154.122 244.048C145.079 235.24 137.664 240.543 137.586 240.594C137.121 240.941 136.294 240.594 135.778 239.695C135.261 238.796 135.196 237.897 135.661 237.551C136.126 237.204 144.304 231.323 154.962 241.749C159.755 246.436 162.442 251.572 164.806 256.104C167.674 261.613 169.974 265.953 175.141 268.944C180.8 272.193 183.319 267.93 186.497 262.524C188.629 258.904 191.045 254.82 194.869 252.252C195.347 251.944 196.16 252.368 196.677 253.228C197.194 254.089 197.22 255.026 196.677 255.334C193.099 257.684 190.773 261.638 188.719 265.118C185.528 270.755 182.415 276.058 175.18 271.885Z" fill="#C4C4DC"/>
<path d="M154.859 265.375L140.906 257.376C140.532 257.135 140.219 256.809 139.995 256.425C139.77 256.042 139.64 255.611 139.615 255.168C139.615 254.359 140.183 254.025 140.906 254.436L154.859 262.435C162.61 266.878 178.565 269.368 178.565 248.748C178.565 247.939 179.133 247.605 179.857 248.016C180.234 248.255 180.548 248.58 180.772 248.964C180.997 249.348 181.126 249.78 181.149 250.224C181.123 273.066 163.437 270.293 154.859 265.375Z" fill="#4AC8FF"/>
<path d="M209.416 247.964L124.616 199.301L128.039 197.221L212.839 245.884L209.416 247.964Z" fill="#0091F4"/>
<path d="M212.839 305.166L209.416 307.233V247.964L212.839 245.884V305.166Z" fill="#0091F4"/>
<path d="M84.8126 50.7438L0 2.06771L3.42351 0.000488281L88.2361 48.6637L84.8126 50.7438Z" fill="#0091F4"/>
<path d="M88.2362 107.945L84.8127 110.012V50.7432L88.2362 48.6631V107.945Z" fill="#0091F4"/>
<path d="M84.8126 110.012L0 61.349V2.06714L84.8126 50.7432V110.012Z" fill="#F9F9F9"/>
<path d="M62.3338 54.1843C54.5825 49.7032 48.123 53.3369 48.123 62.2991C48.123 71.2614 54.4662 82.1753 62.3338 86.695C70.2014 91.2146 76.5446 87.5424 76.5446 78.5801C76.5446 69.6179 70.1498 58.6654 62.3338 54.1843ZM62.3338 80.9298C59.6715 79.2022 57.4561 76.8756 55.867 74.1385C54.2779 71.4013 53.3599 68.3307 53.1873 65.1753C53.1873 59.3716 57.2825 57.0219 62.3338 59.9109C65.0009 61.6376 67.2205 63.9655 68.812 66.7052C70.4036 69.445 71.3223 72.5193 71.4933 75.6783C71.4933 81.4691 67.398 83.8317 62.3338 80.8913V80.9298Z" fill="#4AC8FF"/>
<path d="M62.3337 54.1843V59.9109C65.0009 61.6376 67.2204 63.9655 68.812 66.7052C70.4035 69.445 71.3222 72.5193 71.4932 75.6783L76.4799 78.5416C76.4799 69.5665 70.1497 58.6655 62.3337 54.1843Z" fill="#0091F4"/>
<path d="M70.2012 69.5537C71.0117 71.4975 71.4499 73.5747 71.4931 75.6783L76.4798 78.5416C76.4273 75.4385 75.8057 72.3709 74.6453 69.4895L70.2012 69.5537Z" fill="#C4C4DC"/>
<path d="M22.466 31.3165C14.7147 26.8226 8.31982 30.4562 8.31982 39.4313C8.31982 48.4065 14.663 59.2947 22.5306 63.8272C30.3982 68.3597 36.7414 64.6746 36.7414 55.7124C36.7414 46.7501 30.2819 35.7977 22.466 31.3165ZM22.466 58.0492C19.803 56.3223 17.587 53.9959 15.9979 51.2586C14.4087 48.5214 13.4911 45.4503 13.3194 42.2947C13.3194 36.491 17.4147 34.1413 22.466 37.0431C25.1329 38.7671 27.3525 41.0925 28.9441 43.8302C30.5358 46.5679 31.4545 49.6404 31.6255 52.7977C31.6255 58.6013 27.5302 60.951 22.466 58.0492Z" fill="#4AC8FF"/>
<path d="M22.466 31.3162V37.0428C25.1329 38.7667 27.3525 41.0922 28.9441 43.8298C30.5358 46.5675 31.4545 49.64 31.6255 52.7973C31.6255 58.601 27.5302 60.9507 22.466 58.0489C19.803 56.322 17.587 53.9955 15.9979 51.2583C14.4087 48.521 13.4911 45.45 13.3194 42.2943L8.31982 39.431C8.31982 48.4189 14.663 59.2943 22.5306 63.8268C30.3982 68.3593 36.7414 64.6742 36.7414 55.712C36.7414 46.7497 30.2819 35.7973 22.466 31.3162Z" fill="#0091F4"/>
<path d="M22.4658 31.3162V37.0428C25.1669 38.7219 27.3906 41.0602 28.9253 43.8351L32.4651 41.8064C30.0892 37.5175 26.6465 33.9057 22.4658 31.3162Z" fill="#C4C4DC"/>
<path d="M331.577 159.035L246.777 110.372L250.2 108.292L335 156.955L331.577 159.035Z" fill="#0091F4"/>
<path d="M335 216.237L331.577 218.304V159.035L335 156.955V216.237Z" fill="#0091F4"/>
<path d="M331.589 218.304L246.777 169.641V110.359L331.589 159.022V218.304Z" fill="#F9F9F9"/>
<path d="M273.093 175.226L268.829 172.774V145.309L273.093 147.762V175.226Z" fill="#4AC8FF"/>
<path d="M277.369 177.679L273.093 175.226V159.369L277.369 161.821V177.679Z" fill="#0091F4"/>
<path d="M309.55 196.142L305.274 193.69V161.988L309.55 164.441V196.142Z" fill="#3C2768"/>
<path d="M309.55 196.142L305.274 193.69V161.988L309.55 164.441V196.142Z" fill="#0091F4"/>
<path d="M305.273 193.69L301.01 191.237V176.523L305.273 178.975V193.69Z" fill="#4AC8FF"/>
<path d="M294.46 187.475L290.184 185.023V167.214L294.46 169.667V187.475Z" fill="#0091F4"/>
<path d="M285.908 182.571L281.645 180.119V157.084L285.908 159.536V182.571Z" fill="#0091F4"/>
<path d="M290.184 185.023L285.908 182.571V169.988L290.184 172.44V185.023Z" fill="#4AC8FF"/>
<path d="M281.645 180.118L277.369 177.678V169.743L281.645 172.196V180.118Z" fill="#4AC8FF"/>
<path d="M224.117 66.7161L139.304 18.0528L142.741 15.9856L227.541 64.6488L224.117 66.7161Z" fill="#0091F4"/>
<path d="M227.54 123.918L224.117 125.998V66.7162L227.54 64.6489V123.918Z" fill="#0091F4"/>
<path d="M224.117 125.985L139.304 77.3217V18.0527L224.117 66.716V125.985Z" fill="#F9F9F9"/>
<path d="M192.214 85.8036C198.01 82.4778 198.009 71.6917 192.212 61.7122C186.414 51.7327 177.016 46.3388 171.221 49.6646C165.425 52.9904 165.426 63.7765 171.223 73.756C177.02 83.7355 186.418 89.1294 192.214 85.8036Z" fill="#00A4FF"/>
<path d="M175.942 75.8198V53.0161L192.608 73.9837L175.942 75.8198Z" fill="white"/>
<path d="M213.782 107.919L149.64 71.1074V76.9881L213.782 113.8V107.919Z" fill="#C4C4DC"/>
<path d="M164.225 79.479L149.64 71.1074V76.9881L164.225 85.3597V79.479Z" fill="#00A4FF"/>
<path d="M51.882 273.99C52.0358 274.456 52.3257 274.866 52.7148 275.169C53.104 275.471 53.5747 275.651 54.0672 275.686C54.5115 275.618 54.9371 275.46 55.3182 275.223C55.6994 274.986 56.028 274.674 56.2842 274.307C58.1278 272.184 59.4541 269.667 60.1601 266.951C60.1601 266.666 60.0325 266.46 59.873 266.206C59.7135 265.953 58.278 265.62 57.8474 265.857C56.4342 266.591 55.1475 267.544 54.0353 268.679C52.6955 269.836 51.1164 272.135 51.882 273.99Z" fill="#C4C4DC"/>
<path d="M111.073 132.299C111.073 139.433 106.033 142.334 99.8122 138.767C96.5381 136.639 93.814 133.776 91.8604 130.407C89.9069 127.039 88.7788 123.261 88.5674 119.379C88.5674 112.245 93.6076 109.344 99.8282 112.911C103.103 115.038 105.828 117.901 107.782 121.269C109.735 124.638 110.863 128.416 111.073 132.299Z" fill="white"/>
<path d="M79.6034 278.936C80.7359 279.316 80.2733 280.41 75.6956 280.981C73.1239 281.42 70.501 281.479 67.912 281.155C66.3169 280.901 67.0188 276.399 67.0188 276.399C67.8801 276.193 69.172 275.464 70.129 276.193C71.2819 276.811 72.5252 277.244 73.8135 277.477C76.3336 278.064 78.3115 278.492 79.6034 278.936Z" fill="#C4C4DC"/>
<path d="M64.77 153.288C64.3092 153.289 63.858 153.158 63.4703 152.911C63.0827 152.663 62.7752 152.31 62.5848 151.893C62.0425 150.704 63.1271 149.895 63.781 148.722C69.1243 139.353 70.7991 141.763 73.6063 139.211C76.7964 136.341 86.5579 125.355 86.6855 125.213C87.5468 124.23 88.2805 119.855 88.6154 121.155C89.3332 124.721 91.5662 124.88 91.1994 125.546C91.008 125.91 88.9185 126.402 88.6154 126.735C88.3124 127.068 80.2257 139.67 76.8123 142.746C72.9524 146.202 66.9711 152.463 65.7589 153.018C65.4527 153.178 65.1153 153.27 64.77 153.288Z" fill="#F7D7D0"/>
<path d="M64.77 153.288C64.3092 153.289 63.858 153.158 63.4703 152.91C63.0827 152.663 62.7752 152.309 62.5848 151.892C62.0425 150.704 63.1271 149.895 63.781 148.722C69.1243 139.353 74.4995 137.958 77.1792 135.327C79.0453 133.503 81.5814 136.563 80.8477 137.974C77.6787 142.639 74.1653 147.063 70.3366 151.211C67.5134 153.89 66.4447 152.796 65.7589 153.05C65.4502 153.199 65.1129 153.28 64.77 153.288Z" fill="#282A38"/>
<path d="M79.3484 124.785C79.3484 130.412 80.1459 141.874 74.5634 141.874C73.3663 141.807 72.2022 141.459 71.166 140.859C70.512 140.511 70.2568 152.923 69.571 152.448C64.5307 148.817 58.9163 128.859 58.9163 124.785C58.9163 122.086 59.9951 119.497 61.9155 117.588C63.8359 115.68 66.4404 114.607 69.1563 114.607C71.8721 114.607 74.4767 115.68 76.397 117.588C78.3174 119.497 79.3963 122.086 79.3963 124.785H79.3484Z" fill="#F7D7D0"/>
<path d="M55.0728 185.96C49.7933 188.069 47.9431 194.695 50.1123 227.637C50.9098 239.59 45.423 246.264 52.2018 270.074C52.5208 271.231 53.0312 272.991 54.8654 272.531C56.1095 272.214 56.3329 268.537 56.4605 268.235C59.794 242.776 56.3329 241.111 58.7094 230.997C61.4209 219.441 61.8995 206.521 62.1547 207.108C64.93 211.863 61.8516 217.586 64.93 238.813C66.4133 248.99 61.2136 247.976 67.0992 276.304C67.482 278.143 70.05 278.603 70.1935 276.51C71.5652 256.282 72.4266 246.184 74.4044 235.294C77.9932 215.573 77.3551 202.542 76.9245 198.5C75.2657 182.457 73.7823 199.689 55.0728 185.96Z" fill="#254CAD"/>
<path d="M75.9193 193.062C73.7455 193.841 71.4219 194.117 69.1246 193.87C64.6745 193.601 64.6585 192.713 64.6585 192.713L54.1155 181.173L64.3076 146.646L70.8153 149.404C70.8153 149.404 78.3278 153.462 83.0969 154.318C87.866 155.174 94.5491 156.601 96.5429 156.236C98.5366 155.872 97.771 155.761 98.5366 155.761C99.1455 155.786 99.726 156.024 100.175 156.433C100.625 156.842 100.914 157.395 100.993 157.996C101.024 158.88 100.815 159.757 100.387 160.532C100.387 160.532 96.6705 164.797 84.6441 164.004C72.6176 163.211 78.8701 163.338 78.8701 163.338L79.7952 170.488C79.8823 171.118 79.8146 171.761 79.598 172.36C79.3813 172.959 79.0222 173.497 78.5511 173.928C77.2651 175.269 76.2603 176.851 75.5949 178.582C74.9295 180.313 74.6169 182.158 74.6752 184.01C74.8105 187.059 75.2269 190.089 75.9193 193.062Z" fill="#282A38"/>
<path d="M79.3483 124.674C79.3483 132.902 65.9183 125.372 69.1243 150.038C74.1486 188.513 56.8746 153.209 63.5577 185.58C64.0362 187.958 67.1146 199.736 60.3677 199.736C56.9703 199.736 55.2636 185.945 50.5902 188.639C47.2566 190.605 44.5451 183.392 43.2531 178.082C35.932 148.279 52.0895 156.601 51.7386 153.542C49.6651 134.915 47.5756 129.271 58.8683 122.375C58.8683 122.375 56.9543 113.324 70.2248 113.403C76.4933 113.435 79.3483 116.447 79.3483 124.674Z" fill="#573B21"/>
<path d="M97.8027 155.903C101.822 152.971 106.942 145.441 108.888 141.129C109.016 140.843 109.255 140.146 109.59 139.337C109.59 139.195 107.054 135.834 108.091 135.961C109.127 136.088 109.893 137.181 110.18 136.31C110.467 135.438 111.009 133.741 111.009 133.741C114.423 136.119 111.616 141.287 111.185 142.27C110.419 143.966 105.985 156.538 100.403 160.532C100.767 159.986 100.971 159.349 100.99 158.693C101.01 158.038 100.845 157.39 100.514 156.823C100.236 156.385 99.8152 156.055 99.3219 155.887C98.8285 155.72 98.2924 155.726 97.8027 155.903Z" fill="#F7D7D0"/>
<path d="M101.409 131.341L99.0747 130.033L99.0443 131.544L96.8424 130.31L96.8728 128.799L95.3828 127.964L95.4209 126.072L96.9108 126.907L96.9228 126.315L95.4328 125.48L95.4709 123.587L96.9608 124.422L97.0705 118.971L101.225 121.299C102.027 121.749 102.729 122.297 103.329 122.943C103.93 123.589 104.391 124.291 104.712 125.049C105.038 125.804 105.194 126.545 105.18 127.272C105.157 128.393 104.78 129.077 104.047 129.323C103.32 129.571 102.317 129.338 101.04 128.622L99.1247 127.549L99.1128 128.14L101.447 129.448L101.409 131.341ZM99.1627 125.656L101.064 126.722C102.297 127.413 102.925 127.184 102.948 126.037C102.959 125.492 102.811 124.965 102.505 124.458C102.198 123.945 101.769 123.531 101.216 123.216L99.2342 122.105L99.1627 125.656Z" fill="#0091F4"/>
<path d="M152.857 143.46L149.317 141.393L148.878 154.374L142.728 150.792L143.168 137.823L139.524 135.718L132.6 144.924L124.926 140.468L134.809 128.784L126.463 108.882L134.111 113.325L140.325 130.017L143.374 131.789L143.813 118.949L149.95 122.518L149.524 135.358L152.508 137.092L159.419 128.014L167.055 132.444L157.856 142.138L166.447 164.569L158.696 160.101L152.857 143.46Z" fill="white"/>
<path d="M179.301 158.766L175.761 156.711L175.322 169.718L169.237 166.149L170.31 134.306L176.459 137.875L176.033 150.625L178.836 152.256L186.587 143.743L194.093 148.096L184.378 157.828L193.977 180.504L186.639 176.241L179.301 158.766Z" fill="white"/>
<path d="M207.633 167.201L213.601 159.497L220.668 163.606L211.444 174.353L219.815 195.578L212.671 191.43L207.297 176.947L201.186 184.766L194.029 180.606L203.486 169.731L195.334 148.892L202.401 153L207.633 167.201Z" fill="white"/>
</svg>
