<svg width="340" height="321" viewBox="0 0 340 321" fill="none" xmlns="http://www.w3.org/2000/svg">
<path d="M299.628 189.576L227.053 147.365L227.136 167.521L299.71 209.731L299.628 189.576Z" fill="#D3EAE6"/>
<path d="M339.589 166.447L299.628 189.576L299.71 209.731L339.672 186.602L339.589 166.447Z" fill="#D3EAE6"/>
<path d="M227.053 161.243V163.969L277.335 191.806L227.053 161.243Z" fill="#ADD8E3"/>
<path d="M227.053 158.021V160.747L277.335 188.584L227.053 158.021Z" fill="#ADD8E3"/>
<path d="M227.136 164.464V167.19L277.335 195.11L227.136 164.464Z" fill="#ADD8E3"/>
<path d="M227.053 154.717V157.443L277.335 185.363L227.053 154.717Z" fill="#ADD8E3"/>
<path d="M227.053 148.274V151L277.335 178.92L227.053 148.274Z" fill="#ADD8E3"/>
<path d="M227.053 151.496V154.222L277.335 182.142L227.053 151.496Z" fill="#ADD8E3"/>
<path d="M253.887 162.977V183.133L270.152 192.632V172.477L253.887 162.977Z" fill="#DCE1E2"/>
<path d="M339.672 182.224V180.489L307.719 199.984L339.672 182.224Z" fill="#CFD1D2"/>
<path d="M339.671 179.003V177.268L307.719 196.68L339.671 179.003Z" fill="#CFD1D2"/>
<path d="M339.671 175.781V174.046L307.719 193.458L339.671 175.781Z" fill="#CFD1D2"/>
<path d="M339.671 183.711L307.719 203.206L339.671 185.446V183.711Z" fill="#CFD1D2"/>
<path d="M339.589 169.255V167.603L307.719 187.015L339.589 169.255Z" fill="#CFD1D2"/>
<path d="M339.671 172.559V170.825L307.719 190.237L339.671 172.559Z" fill="#CFD1D2"/>
<path d="M267.015 124.236L227.053 147.365L299.628 189.576L339.589 166.447L267.015 124.236Z" fill="#00BADA"/>
<path d="M293.931 139.848L253.887 162.977L270.152 172.477L310.196 149.348L293.931 139.848Z" fill="white"/>
<path d="M285.014 181.068L324.975 157.938L339.589 166.447L299.628 189.576L285.014 181.068Z" fill="#EDFDFB"/>
<path d="M227.053 147.365L267.015 124.236L281.629 132.744L241.667 155.873L227.053 147.365Z" fill="#EDFDFB"/>
<path d="M274.032 137.123L317.296 162.399L319.939 160.83L276.922 135.47L274.032 137.123Z" fill="#0086A5"/>
<path d="M237.374 151.165L251.823 159.508L254.547 157.939L240.264 149.513L237.374 151.165Z" fill="#0086A5"/>
<path d="M254.465 148.439L266.767 155.46L268.418 154.552L256.364 147.448L254.465 148.439Z" fill="#0086A5"/>
<path d="M272.794 170.99L291.371 181.646L297.151 178.342L278.739 167.521L272.794 170.99Z" fill="#0086A5"/>
<path d="M236.301 141.996L253.309 132.249L267.923 140.757L250.914 150.504L236.301 141.996Z" fill="#ADD8E3"/>
<path d="M258.428 148.687L264.62 144.97L270.648 144.557L272.051 143.813L274.693 143.483L274.198 145.052L273.125 145.878L272.794 149.595L266.354 153.395L258.428 148.687Z" fill="#0086A5"/>
<path d="M273.661 134.153C274.193 133.197 272.299 131.126 269.429 129.53C266.56 127.933 263.803 127.414 263.271 128.371C262.739 129.328 264.634 131.398 267.503 132.995C270.372 134.591 273.129 135.11 273.661 134.153Z" fill="#00BADA"/>
<path d="M330.479 168.66C331.011 167.704 329.116 165.634 326.247 164.037C323.378 162.44 320.621 161.922 320.089 162.878C319.557 163.835 321.452 165.905 324.321 167.502C327.19 169.099 329.947 169.617 330.479 168.66Z" fill="#00BADA"/>
<path d="M299.628 167.521L227.053 125.393L227.136 145.548L299.71 187.676L299.628 167.521Z" fill="#D3EAE6"/>
<path d="M339.589 144.391L299.627 167.52L299.71 187.676L339.671 164.629L339.589 144.391Z" fill="#D3EAE6"/>
<path d="M227.053 139.27V141.913L277.335 169.833L227.053 139.27Z" fill="#ADD8E3"/>
<path d="M227.053 135.966V138.692L277.335 166.612L227.053 135.966Z" fill="#ADD8E3"/>
<path d="M227.135 142.491V145.217L277.335 173.055L227.135 142.491Z" fill="#ADD8E3"/>
<path d="M227.053 132.744V135.47L277.335 163.308L227.053 132.744Z" fill="#ADD8E3"/>
<path d="M227.053 126.219V128.945L277.335 156.865L227.053 126.219Z" fill="#ADD8E3"/>
<path d="M227.053 129.523V132.249L277.335 160.086L227.053 129.523Z" fill="#ADD8E3"/>
<path d="M253.887 141.005V161.078L270.152 170.577V150.505L253.887 141.005Z" fill="#DCE1E2"/>
<path d="M339.671 160.169V158.517L307.719 177.929L339.671 160.169Z" fill="#CFD1D2"/>
<path d="M339.671 156.947V155.295L307.719 174.707L339.671 156.947Z" fill="#CFD1D2"/>
<path d="M339.671 153.726V151.991L307.719 171.486L339.671 153.726Z" fill="#CFD1D2"/>
<path d="M339.671 161.738L307.719 181.15L339.671 163.473V161.738Z" fill="#CFD1D2"/>
<path d="M339.589 147.283V145.548L307.719 164.96L339.589 147.283Z" fill="#CFD1D2"/>
<path d="M339.672 150.505V148.77L307.719 168.265L339.672 150.505Z" fill="#CFD1D2"/>
<path d="M267.015 102.264L227.053 125.393L299.628 167.521L339.589 144.392L267.015 102.264Z" fill="#00BADA"/>
<path d="M293.931 117.793L253.887 140.922L270.152 150.504L310.196 127.375L293.931 117.793Z" fill="white"/>
<path d="M285.014 159.013L324.975 135.966L339.589 144.474L299.628 167.521L285.014 159.013Z" fill="#EDFDFB"/>
<path d="M227.053 125.393L267.015 102.264L281.629 110.772L241.667 133.818L227.053 125.393Z" fill="#EDFDFB"/>
<path d="M274.032 115.15L317.296 140.426L319.938 138.857L276.922 113.498L274.032 115.15Z" fill="#0086A5"/>
<path d="M237.374 129.193L251.823 137.453L254.547 135.966L240.264 127.541L237.374 129.193Z" fill="#0086A5"/>
<path d="M254.465 126.466L266.767 133.488L268.418 132.497L256.364 125.393L254.465 126.466Z" fill="#0086A5"/>
<path d="M272.794 148.935L291.371 159.591L297.151 156.287L278.739 145.548L272.794 148.935Z" fill="#0086A5"/>
<path d="M236.3 120.023L253.309 110.276L267.923 118.702L250.914 128.532L236.3 120.023Z" fill="#ADD8E3"/>
<path d="M258.428 126.714L264.62 122.915L270.647 122.501L272.051 121.841L274.693 121.51L274.198 123.08L273.124 123.906L272.794 127.54L266.354 131.423L258.428 126.714Z" fill="#0086A5"/>
<path d="M273.625 112.119C274.157 111.162 272.263 109.092 269.393 107.496C266.524 105.899 263.767 105.38 263.235 106.337C262.703 107.294 264.598 109.364 267.467 110.961C270.336 112.557 273.093 113.076 273.625 112.119Z" fill="#00BADA"/>
<path d="M330.515 146.666C331.047 145.71 329.152 143.639 326.283 142.043C323.414 140.446 320.657 139.927 320.125 140.884C319.593 141.841 321.488 143.911 324.357 145.508C327.226 147.104 329.983 147.623 330.515 146.666Z" fill="#00BADA"/>
<path d="M299.628 145.465L227.053 103.255L227.136 123.41L299.71 165.621L299.628 145.465Z" fill="#D3EAE6"/>
<path d="M339.589 122.337L299.628 145.466L299.71 165.621L339.672 142.492L339.589 122.337Z" fill="#D3EAE6"/>
<path d="M227.053 117.132V119.858L277.335 147.778L227.053 117.132Z" fill="#ADD8E3"/>
<path d="M227.053 113.911V116.637L277.335 144.474L227.053 113.911Z" fill="#ADD8E3"/>
<path d="M227.136 120.437V123.162L277.335 151L227.136 120.437Z" fill="#ADD8E3"/>
<path d="M227.053 110.689V113.415L277.335 141.253L227.053 110.689Z" fill="#ADD8E3"/>
<path d="M227.053 104.164V106.89L277.335 134.81L227.053 104.164Z" fill="#ADD8E3"/>
<path d="M227.053 107.385V110.111L277.335 138.031L227.053 107.385Z" fill="#ADD8E3"/>
<path d="M253.887 118.867V139.023L270.152 148.522V128.367L253.887 118.867Z" fill="#DCE1E2"/>
<path d="M339.671 138.114V136.379L307.719 155.874L339.671 138.114Z" fill="#CFD1D2"/>
<path d="M339.671 134.892V133.158L307.719 152.652L339.671 134.892Z" fill="#CFD1D2"/>
<path d="M339.671 131.671V129.936L307.719 149.431L339.671 131.671Z" fill="#CFD1D2"/>
<path d="M339.671 139.684L307.719 159.096L339.671 141.336V139.684Z" fill="#CFD1D2"/>
<path d="M339.589 125.228V123.493L307.719 142.905L339.589 125.228Z" fill="#CFD1D2"/>
<path d="M339.671 128.45V126.715L307.719 146.127L339.671 128.45Z" fill="#CFD1D2"/>
<path d="M267.015 80.126L227.053 103.255L299.628 145.466L339.589 122.337L267.015 80.126Z" fill="#00BADA"/>
<path d="M293.931 95.7383L253.887 118.867L270.152 128.449L310.196 105.32L293.931 95.7383Z" fill="white"/>
<path d="M285.014 136.958L324.975 113.829L339.589 122.337L299.628 145.466L285.014 136.958Z" fill="#EDFDFB"/>
<path d="M227.053 103.255L267.015 80.126L281.629 88.6342L241.667 111.763L227.053 103.255Z" fill="#EDFDFB"/>
<path d="M274.032 93.0949L317.296 118.289L319.939 116.802L276.922 91.4429L274.032 93.0949Z" fill="#0086A5"/>
<path d="M237.374 107.137L251.823 115.398L254.547 113.828L240.264 105.485L237.374 107.137Z" fill="#0086A5"/>
<path d="M254.465 104.412L266.767 111.433L268.418 110.442L256.364 103.338L254.465 104.412Z" fill="#0086A5"/>
<path d="M272.794 126.88L291.371 137.536L297.151 134.232L278.739 123.493L272.794 126.88Z" fill="#0086A5"/>
<path d="M236.301 97.8854L253.309 88.1382L267.923 96.6464L250.914 106.394L236.301 97.8854Z" fill="#ADD8E3"/>
<path d="M258.428 104.659L264.62 100.859L270.648 100.446L272.051 99.7855L274.693 99.4551L274.198 101.025L273.125 101.851L272.794 105.485L266.354 109.368L258.428 104.659Z" fill="#0086A5"/>
<path d="M273.643 90.053C274.175 89.0962 272.281 87.0262 269.412 85.4295C266.542 83.8328 263.785 83.3141 263.253 84.2709C262.721 85.2278 264.616 87.2978 267.485 88.8945C270.354 90.4911 273.111 91.0099 273.643 90.053Z" fill="#00BADA"/>
<path d="M330.461 124.56C330.993 123.603 329.099 121.533 326.23 119.936C323.361 118.34 320.603 117.821 320.071 118.778C319.539 119.735 321.434 121.805 324.303 123.401C327.172 124.998 329.929 125.517 330.461 124.56Z" fill="#00BADA"/>
<path d="M299.628 123.906L227.053 81.6953L227.136 101.851L299.71 144.061L299.628 123.906Z" fill="#D3EAE6"/>
<path d="M339.589 100.777L299.628 123.906L299.71 144.061L339.672 120.932L339.589 100.777Z" fill="#D3EAE6"/>
<path d="M227.053 95.5728V98.2987L277.335 126.219L227.053 95.5728Z" fill="#ADD8E3"/>
<path d="M227.053 92.3513V95.0772L277.335 122.915L227.053 92.3513Z" fill="#ADD8E3"/>
<path d="M227.136 98.877V101.52L277.335 129.44L227.136 98.877Z" fill="#ADD8E3"/>
<path d="M227.053 89.1299V91.8558L277.335 119.693L227.053 89.1299Z" fill="#ADD8E3"/>
<path d="M227.053 82.604V85.3299L277.335 113.25L227.053 82.604Z" fill="#ADD8E3"/>
<path d="M227.053 85.8259V88.5519L277.335 116.472L227.053 85.8259Z" fill="#ADD8E3"/>
<path d="M253.887 97.3079V117.463L270.152 126.963V106.807L253.887 97.3079Z" fill="#DCE1E2"/>
<path d="M339.671 116.554V114.82L307.719 134.314L339.671 116.554Z" fill="#CFD1D2"/>
<path d="M339.672 113.333V111.598L307.719 131.092L339.672 113.333Z" fill="#CFD1D2"/>
<path d="M339.671 110.111V108.376L307.719 127.788L339.671 110.111Z" fill="#CFD1D2"/>
<path d="M339.671 118.042L307.719 137.536L339.671 119.776V118.042Z" fill="#CFD1D2"/>
<path d="M339.589 103.668V101.933L307.719 121.345L339.589 103.668Z" fill="#CFD1D2"/>
<path d="M339.671 106.89V105.155L307.719 124.567L339.671 106.89Z" fill="#CFD1D2"/>
<path d="M267.015 58.5664L227.053 81.6955L299.628 123.906L339.589 100.777L267.015 58.5664Z" fill="#00BADA"/>
<path d="M293.931 74.1782L253.887 97.3073L270.152 106.807L310.196 83.7603L293.931 74.1782Z" fill="white"/>
<path d="M285.014 115.398L324.975 92.2686L339.589 100.777L299.628 123.906L285.014 115.398Z" fill="#EDFDFB"/>
<path d="M227.053 81.6955L267.015 58.5664L281.629 67.0746L241.667 90.2037L227.053 81.6955Z" fill="#EDFDFB"/>
<path d="M274.032 71.535L317.296 96.7292L319.939 95.1597L276.922 69.8003L274.032 71.535Z" fill="#0086A5"/>
<path d="M237.374 85.4953L251.823 93.8383L254.547 92.2689L240.264 83.8433L237.374 85.4953Z" fill="#0086A5"/>
<path d="M254.465 82.7693L266.767 89.8733L268.418 88.882L256.364 81.7781L254.465 82.7693Z" fill="#0086A5"/>
<path d="M272.794 105.32L291.371 115.976L297.151 112.672L278.739 101.851L272.794 105.32Z" fill="#0086A5"/>
<path d="M236.301 76.3261L253.309 66.5789L267.923 75.0871L250.914 84.8343L236.301 76.3261Z" fill="#ADD8E3"/>
<path d="M258.428 83.0998L264.62 79.3L270.648 78.887L272.051 78.2262L274.693 77.8958L274.198 79.4652L273.125 80.2087L272.794 83.9258L266.354 87.7256L258.428 83.0998Z" fill="#0086A5"/>
<path d="M273.653 68.4869C274.185 67.53 272.291 65.46 269.421 63.8633C266.552 62.2666 263.795 61.7479 263.263 62.7048C262.731 63.6616 264.626 65.7316 267.495 67.3283C270.364 68.925 273.121 69.4437 273.653 68.4869Z" fill="#00BADA"/>
<path d="M330.471 102.994C331.003 102.037 329.109 99.9673 326.239 98.3707C323.37 96.774 320.613 96.2552 320.081 97.2121C319.549 98.1689 321.444 100.239 324.313 101.836C327.182 103.432 329.939 103.951 330.471 102.994Z" fill="#00BADA"/>
<path d="M81.9869 173.304L154.561 131.093L154.479 151.248L81.9043 193.459L81.9869 173.304Z" fill="#D3EAE6"/>
<path d="M42.0257 150.174L81.9871 173.303L81.9045 193.459L41.9431 170.33L42.0257 150.174Z" fill="#D3EAE6"/>
<path d="M154.561 144.97L154.479 147.696L104.279 175.534L154.561 144.97Z" fill="#ADD8E3"/>
<path d="M154.561 141.749V144.475L104.279 172.312L154.561 141.749Z" fill="#ADD8E3"/>
<path d="M154.479 148.192V150.918L104.279 178.838L154.479 148.192Z" fill="#ADD8E3"/>
<path d="M154.561 138.445V141.171L104.279 169.091L154.561 138.445Z" fill="#ADD8E3"/>
<path d="M154.561 132.001V134.727L104.279 162.565L154.561 132.001Z" fill="#ADD8E3"/>
<path d="M154.561 135.223V137.949L104.279 165.869L154.561 135.223Z" fill="#ADD8E3"/>
<path d="M41.9429 165.951V164.217L73.8955 183.711L41.9429 165.951Z" fill="#CFD1D2"/>
<path d="M41.9431 162.73V160.995L73.8957 180.407L41.9431 162.73Z" fill="#CFD1D2"/>
<path d="M41.9431 159.508V157.773L73.8957 177.185L41.9431 159.508Z" fill="#CFD1D2"/>
<path d="M41.9431 167.438L73.8957 186.933L41.9431 169.173V167.438Z" fill="#CFD1D2"/>
<path d="M41.9431 152.983L42.0257 151.331L73.8957 170.743L41.9431 152.983Z" fill="#CFD1D2"/>
<path d="M41.9431 156.287V154.552L73.8957 173.964L41.9431 156.287Z" fill="#CFD1D2"/>
<path d="M114.601 107.963L154.562 131.092L81.988 173.303L42.0266 150.174L114.601 107.963Z" fill="#00BADA"/>
<path d="M87.684 123.576L127.728 146.705L111.463 156.204L71.4187 133.075L87.684 123.576Z" fill="white"/>
<path d="M96.601 164.795L56.6396 141.666L42.0256 150.174L81.987 173.303L96.601 164.795Z" fill="#EDFDFB"/>
<path d="M154.561 131.092L114.518 107.963L99.9036 116.472L139.948 139.601L154.561 131.092Z" fill="#EDFDFB"/>
<path d="M107.582 120.85L64.3181 146.127L61.676 144.558L104.692 119.198L107.582 120.85Z" fill="#0086A5"/>
<path d="M144.241 134.893L129.792 143.236L127.067 141.666L141.351 133.24L144.241 134.893Z" fill="#0086A5"/>
<path d="M127.15 132.167L114.848 139.188L113.197 138.279L125.251 131.175L127.15 132.167Z" fill="#0086A5"/>
<path d="M108.821 154.717L90.2434 165.373L84.4639 161.987L102.876 151.248L108.821 154.717Z" fill="#0086A5"/>
<path d="M145.314 125.723L128.306 115.976L113.692 124.484L130.7 134.231L145.314 125.723Z" fill="#ADD8E3"/>
<path d="M123.187 132.414L116.994 128.697L110.967 128.284L109.564 127.541L106.839 127.21L107.417 128.78L108.49 129.606L108.82 133.323L115.26 137.123L123.187 132.414Z" fill="#0086A5"/>
<path d="M114.138 116.623C117.007 115.026 118.902 112.956 118.37 111.999C117.838 111.042 115.081 111.561 112.211 113.158C109.342 114.754 107.448 116.824 107.98 117.781C108.512 118.738 111.269 118.219 114.138 116.623Z" fill="#00BADA"/>
<path d="M57.2766 151.256C60.1457 149.66 62.0404 147.59 61.5084 146.633C60.9764 145.676 58.2192 146.195 55.3501 147.791C52.4809 149.388 50.5863 151.458 51.1183 152.415C51.6503 153.372 54.4074 152.853 57.2766 151.256Z" fill="#00BADA"/>
<path d="M81.9871 150.67L154.562 108.459L154.479 128.614L81.9045 170.825L81.9871 150.67Z" fill="#D3EAE6"/>
<path d="M42.0257 127.541L81.9871 150.67L81.9045 170.825L41.9431 147.696L42.0257 127.541Z" fill="#D3EAE6"/>
<path d="M154.562 122.336L154.479 125.062L104.28 152.982L154.562 122.336Z" fill="#ADD8E3"/>
<path d="M154.562 119.115V121.841L104.28 149.678L154.562 119.115Z" fill="#ADD8E3"/>
<path d="M154.479 125.641V128.284L104.28 156.204L154.479 125.641Z" fill="#ADD8E3"/>
<path d="M154.562 115.893V118.619L104.28 146.457L154.562 115.893Z" fill="#ADD8E3"/>
<path d="M154.562 109.368V112.094L104.28 140.014L154.562 109.368Z" fill="#ADD8E3"/>
<path d="M154.562 112.589V115.315L104.28 143.235L154.562 112.589Z" fill="#ADD8E3"/>
<path d="M41.9431 143.318V141.583L73.8957 161.078L41.9431 143.318Z" fill="#CFD1D2"/>
<path d="M41.9431 140.097V138.362L73.8957 157.856L41.9431 140.097Z" fill="#CFD1D2"/>
<path d="M41.9431 136.875V135.14L73.8957 154.552L41.9431 136.875Z" fill="#CFD1D2"/>
<path d="M41.9431 144.805L73.8957 164.3L41.9431 146.54V144.805Z" fill="#CFD1D2"/>
<path d="M41.9431 130.432L42.0257 128.697L73.8957 148.109L41.9431 130.432Z" fill="#CFD1D2"/>
<path d="M41.9431 133.654V131.919L73.8957 151.331L41.9431 133.654Z" fill="#CFD1D2"/>
<path d="M114.6 85.3298L154.562 108.459L81.987 150.67L42.0256 127.54L114.6 85.3298Z" fill="#00BADA"/>
<path d="M87.684 100.942L127.728 124.071L111.463 133.57L71.4187 110.524L87.684 100.942Z" fill="white"/>
<path d="M96.601 142.162L56.6396 119.032L42.0256 127.541L81.987 150.67L96.601 142.162Z" fill="#EDFDFB"/>
<path d="M154.561 108.459L114.518 85.3301L99.9036 93.8383L139.948 116.967L154.561 108.459Z" fill="#EDFDFB"/>
<path d="M107.582 98.2986L64.3181 123.493L61.676 121.923L104.692 96.564L107.582 98.2986Z" fill="#0086A5"/>
<path d="M144.241 112.341L129.792 120.602L127.068 119.032L141.351 110.607L144.241 112.341Z" fill="#0086A5"/>
<path d="M127.15 109.615L114.848 116.637L113.197 115.645L125.251 108.542L127.15 109.615Z" fill="#0086A5"/>
<path d="M108.821 132.084L90.2437 142.74L84.4641 139.436L102.876 128.615L108.821 132.084Z" fill="#0086A5"/>
<path d="M145.314 103.09L128.306 93.3425L113.692 101.851L130.7 111.598L145.314 103.09Z" fill="#ADD8E3"/>
<path d="M123.187 109.863L116.995 106.064L110.968 105.651L109.564 104.99L106.839 104.659L107.417 106.229L108.491 107.055L108.821 110.69L115.261 114.489L123.187 109.863Z" fill="#0086A5"/>
<path d="M114.168 94.0637C117.038 92.467 118.932 90.3969 118.4 89.4401C117.868 88.4833 115.111 89.002 112.242 90.5987C109.373 92.1954 107.478 94.2654 108.01 95.2222C108.542 96.1791 111.299 95.6604 114.168 94.0637Z" fill="#00BADA"/>
<path d="M57.2668 128.626C60.1359 127.029 62.0306 124.959 61.4986 124.002C60.9666 123.045 58.2094 123.564 55.3403 125.161C52.4712 126.757 50.5765 128.827 51.1085 129.784C51.6405 130.741 54.3976 130.222 57.2668 128.626Z" fill="#00BADA"/>
<path d="M81.9869 127.292L154.561 85.1643L154.479 105.32L81.9043 147.448L81.9869 127.292Z" fill="#D3EAE6"/>
<path d="M42.0254 104.164L81.9868 127.293L81.9043 147.448L41.9429 124.402L42.0254 104.164Z" fill="#D3EAE6"/>
<path d="M154.561 99.0415L154.479 101.685L104.279 129.605L154.561 99.0415Z" fill="#ADD8E3"/>
<path d="M154.561 95.7375V98.4635L104.279 126.384L154.561 95.7375Z" fill="#ADD8E3"/>
<path d="M154.479 102.263V104.989L104.279 132.827L154.479 102.263Z" fill="#ADD8E3"/>
<path d="M154.561 92.5161V95.242L104.279 123.08L154.561 92.5161Z" fill="#ADD8E3"/>
<path d="M154.561 85.9902V88.7162L104.279 116.636L154.561 85.9902Z" fill="#ADD8E3"/>
<path d="M154.561 89.2947V92.0206L104.279 119.858L154.561 89.2947Z" fill="#ADD8E3"/>
<path d="M41.9429 119.941V118.289L73.8955 137.7L41.9429 119.941Z" fill="#CFD1D2"/>
<path d="M41.9429 116.719V115.067L73.8955 134.479L41.9429 116.719Z" fill="#CFD1D2"/>
<path d="M41.9429 113.498V111.763L73.8955 131.257L41.9429 113.498Z" fill="#CFD1D2"/>
<path d="M41.9429 121.51L73.8955 140.922L41.9429 123.245V121.51Z" fill="#CFD1D2"/>
<path d="M41.9429 107.055L42.0254 105.32L73.8955 124.732L41.9429 107.055Z" fill="#CFD1D2"/>
<path d="M41.9429 110.276V108.542L73.8955 128.036L41.9429 110.276Z" fill="#CFD1D2"/>
<path d="M114.601 62.0354L154.562 85.1645L81.988 127.293L42.0266 104.163L114.601 62.0354Z" fill="#00BADA"/>
<path d="M87.684 77.5649L127.728 100.694L111.463 110.276L71.4187 87.147L87.684 77.5649Z" fill="white"/>
<path d="M96.601 118.785L56.6396 95.738L42.0256 104.164L81.987 127.293L96.601 118.785Z" fill="#EDFDFB"/>
<path d="M154.561 85.1642L114.518 62.0352L99.9036 70.5434L139.948 93.5898L154.561 85.1642Z" fill="#EDFDFB"/>
<path d="M107.582 74.9216L64.3181 100.198L61.676 98.6289L104.692 73.2695L107.582 74.9216Z" fill="#0086A5"/>
<path d="M144.241 88.9646L129.792 97.225L127.067 95.6555L141.351 87.3125L144.241 88.9646Z" fill="#0086A5"/>
<path d="M127.15 86.2382L114.848 93.2595L113.196 92.2682L125.251 85.1643L127.15 86.2382Z" fill="#0086A5"/>
<path d="M108.821 108.707L90.2437 119.362L84.4641 116.058L102.876 105.32L108.821 108.707Z" fill="#0086A5"/>
<path d="M145.314 79.7951L128.306 70.0479L113.692 78.4735L130.7 88.3033L145.314 79.7951Z" fill="#ADD8E3"/>
<path d="M123.187 86.486L116.995 82.6862L110.967 82.2732L109.564 81.6124L106.839 81.282L107.417 82.8515L108.49 83.6775L108.821 87.3121L115.261 91.1945L123.187 86.486Z" fill="#0086A5"/>
<path d="M114.155 70.6901C117.024 69.0934 118.919 67.0234 118.387 66.0665C117.855 65.1097 115.098 65.6284 112.229 67.2251C109.36 68.8218 107.465 70.8919 107.997 71.8487C108.529 72.8056 111.286 72.2868 114.155 70.6901Z" fill="#00BADA"/>
<path d="M57.2939 105.324C60.163 103.727 62.0577 101.657 61.5257 100.7C60.9937 99.7435 58.2366 100.262 55.3674 101.859C52.4983 103.456 50.6036 105.526 51.1356 106.483C51.6676 107.439 54.4247 106.921 57.2939 105.324Z" fill="#00BADA"/>
<path d="M306.15 193.872L305.902 201.637L189.651 269.207L189.899 261.442L306.15 193.872Z" fill="#2B9FFC"/>
<path d="M189.899 261.442L189.651 269.207L72.6567 201.637L72.987 193.872L189.899 261.442Z" fill="#136CB2"/>
<path d="M306.15 193.872L189.899 261.442L72.9871 193.872L189.156 126.302L306.15 193.872Z" fill="#3AADEA"/>
<path d="M291.784 95.9856L291.619 195.276L189.487 254.585L189.734 155.295L291.784 95.9856Z" fill="#BDC8CD"/>
<path d="M189.734 155.295L189.487 254.585L86.7759 195.276L87.0236 95.9856L189.734 155.295Z" fill="#8F97A8"/>
<path d="M291.784 95.9855L189.734 155.295L87.0234 95.9855L189.074 36.5933L291.784 95.9855Z" fill="#8F97A8"/>
<path d="M110.307 201.471V139.105L103.784 135.223V205.188L110.307 201.471Z" fill="#BDC8CD"/>
<path d="M167.689 234.761L110.307 201.472L103.784 205.189L167.689 242.113V234.761Z" fill="#3AADEA"/>
<path d="M110.307 139.106V201.472L138.957 218.158V155.792L110.307 139.106Z" fill="#E4E5E6"/>
<path d="M167.689 172.478L138.957 155.792V218.158L167.689 234.761V172.478Z" fill="#E4E5E6"/>
<path d="M138.957 155.792L153.323 164.217V226.418L138.957 218.157V155.792Z" fill="#BDC8CD"/>
<path d="M153.323 174.212L138.957 183.133V218.157L153.323 227.409V174.212Z" fill="#3AADEA"/>
<path d="M85.2891 100.281V102.925L186.926 161.491V158.847L85.2891 100.281Z" fill="#8F97A8"/>
<path d="M186.926 158.847V161.491L189.651 159.921V157.36L186.926 158.847Z" fill="#E4E2E5"/>
<path d="M77.5281 97.3074L193.862 29.6548L248.107 2.64331L131.773 70.2133L77.5281 97.3074Z" fill="#136CB2"/>
<path d="M185.688 159.756L301.939 92.1035V103.007L185.605 170.66L185.688 159.756Z" fill="#0091F4"/>
<path d="M131.774 70.2132L248.108 2.64319L301.94 92.1032L185.689 159.756L131.774 70.2132Z" fill="#2B9FFC"/>
<path d="M191.881 83.3474L239.108 55.8403L244.557 64.679L197.33 92.1035L191.881 83.3474Z" fill="#3F4A5B"/>
<path d="M131.773 70.2134L185.688 159.756L185.605 170.66L131.773 81.1171L77.5281 108.211V97.3075L131.773 70.2134Z" fill="#136CB2"/>
<path d="M251.657 6.27802C251.657 6.19542 251.657 6.11281 251.657 6.11281V6.03021V5.94761C251.657 5.865 251.657 5.7824 251.657 5.7824C251.657 5.69979 251.657 5.61719 251.657 5.61719C251.657 5.53458 251.657 5.53458 251.657 5.45198C251.657 5.36938 251.657 5.28677 251.657 5.28677V5.20417C251.657 5.20417 251.657 5.20417 251.657 5.12157V5.03896C251.657 4.95636 251.657 4.87375 251.575 4.87375C251.575 4.79115 251.575 4.79115 251.492 4.70855C251.492 4.62594 251.41 4.54334 251.41 4.54334C251.41 4.46073 251.327 4.37813 251.327 4.37813C251.327 4.37813 251.327 4.29553 251.244 4.21292C251.244 4.13032 251.162 4.04771 251.162 4.04771C251.162 3.96511 251.162 3.96511 251.079 3.88251C251.079 3.7999 250.997 3.7173 250.997 3.7173C250.997 3.63469 250.914 3.55209 250.914 3.55209C250.914 3.46949 250.832 3.46949 250.832 3.38688C250.832 3.30428 250.749 3.22168 250.749 3.22168C250.749 3.22168 250.749 3.13907 250.667 3.13907C250.667 3.05647 250.584 3.05647 250.584 2.97386C250.501 2.89126 250.501 2.80866 250.419 2.72605C250.336 2.64345 250.254 2.47824 250.171 2.39564C250.089 2.31303 250.089 2.23043 250.006 2.14782C249.923 2.06522 249.923 2.06522 249.841 1.98262C249.758 1.90001 249.758 1.90001 249.676 1.81741C249.593 1.7348 249.593 1.7348 249.511 1.6522L249.428 1.5696C249.345 1.48699 249.345 1.48699 249.263 1.40439C249.263 1.40439 249.263 1.40439 249.18 1.32178L249.098 1.23918C249.015 1.15658 249.015 1.15658 248.933 1.07397L248.85 0.991369C248.85 0.991369 248.85 0.991369 248.768 0.908765C248.685 0.826161 248.685 0.826161 248.602 0.743557C248.52 0.743557 248.52 0.660954 248.437 0.660954C248.355 0.660954 248.355 0.57835 248.272 0.57835C248.19 0.57835 248.19 0.495746 248.107 0.495746L248.024 0.413142C247.942 0.413142 247.942 0.330538 247.859 0.330538C247.859 0.330538 247.777 0.330538 247.777 0.247934C247.694 0.247934 247.694 0.16533 247.612 0.16533C247.529 0.16533 247.529 0.16533 247.446 0.082726H247.364C247.281 0.082726 247.281 0.082726 247.199 0.00012207H247.116C247.116 0.00012207 247.116 0.00012207 247.034 0.00012207C246.951 0.00012207 246.951 0.00012207 246.869 0.00012207H246.786C246.703 0.00012207 246.703 0.00012207 246.621 0.00012207H246.538C246.538 0.00012207 246.538 0.00012207 246.456 0.00012207H246.373C246.291 0.00012207 246.208 0.00012207 246.125 0.00012207C246.125 0.00012207 246.125 0.00012207 246.043 0.00012207C245.96 0.00012207 245.878 0.000122089 245.795 0.082726C245.713 0.082726 245.63 0.16533 245.465 0.247934L129.214 67.4875C129.296 67.4049 129.379 67.4049 129.544 67.3223C129.626 67.3223 129.709 67.2397 129.792 67.2397C129.792 67.2397 129.792 67.2397 129.874 67.2397C129.957 67.2397 130.039 67.2397 130.204 67.2397C130.204 67.2397 130.204 67.2397 130.287 67.2397C130.37 67.2397 130.452 67.2397 130.617 67.2397C130.7 67.2397 130.865 67.2397 130.947 67.3223C131.03 67.3223 131.195 67.4049 131.278 67.4049C131.36 67.4875 131.525 67.4875 131.608 67.5701C131.773 67.6527 131.856 67.7353 132.021 67.7353C132.186 67.8179 132.269 67.9005 132.434 67.9831C132.516 68.0658 132.681 68.1484 132.764 68.231C132.846 68.3136 133.012 68.3962 133.094 68.4788C133.177 68.5614 133.342 68.7266 133.424 68.8092C133.507 68.8918 133.672 69.057 133.755 69.1396C133.837 69.3048 134.002 69.3874 134.085 69.5526C134.168 69.7178 134.25 69.8004 134.333 69.9656C134.415 70.0482 134.415 70.1309 134.498 70.2135C134.58 70.2961 134.58 70.3787 134.663 70.4613C134.663 70.4613 134.663 70.5439 134.745 70.5439C134.828 70.6265 134.911 70.7917 134.911 70.8743C134.993 71.0395 135.076 71.2047 135.158 71.2873C135.241 71.4525 135.323 71.6177 135.323 71.7003C135.406 71.8655 135.406 72.0307 135.489 72.196C135.571 72.3612 135.571 72.5264 135.571 72.609C135.571 72.609 135.571 72.609 135.571 72.6916C135.571 72.8568 135.654 73.022 135.654 73.1872C135.654 73.3524 135.736 73.5176 135.736 73.6828C135.736 73.848 135.736 74.0132 135.736 74.0958V76.4088L251.575 8.42572V6.11281C251.657 6.44323 251.657 6.36062 251.657 6.27802Z" fill="#3AADEA"/>
<path d="M131.938 67.7356C134.085 68.9746 135.819 71.9484 135.819 74.4265V76.7394L128.058 72.2788V69.9659C128.058 67.5704 129.792 66.5791 131.938 67.7356Z" fill="#136CB2"/>
<path d="M263.382 188.749L263.299 168.594V145.878L245.713 155.956L245.796 181.15L245.878 198.91L263.382 188.749Z" fill="#E4E5E6"/>
<path d="M243.566 200.231L243.484 180.076V157.277L225.897 167.438L225.98 192.632L226.063 210.309L243.566 200.231Z" fill="#E4E5E6"/>
<path d="M247.777 199.984L243.979 197.753L261.483 187.676L265.281 189.823L247.777 199.984Z" fill="#3AADEA"/>
<path d="M227.962 211.383L224.164 209.235L241.668 199.075L245.466 201.305L227.962 211.383Z" fill="#3AADEA"/>
<path d="M265.281 189.823L265.198 169.751V169.668L265.116 146.952L261.4 144.722L261.483 168.842V187.676L265.281 189.823Z" fill="#136CB2"/>
<path d="M245.466 201.305L245.383 177.515L245.3 158.351L241.585 156.204L241.668 176.359V199.075L245.466 201.305Z" fill="#136CB2"/>
<path d="M225.402 167.19L221.687 164.96L263.712 140.674L267.51 142.904L225.402 167.19Z" fill="white"/>
<path d="M225.567 215.513L221.852 213.283L221.687 164.959L225.402 167.19L225.567 215.513Z" fill="#136CB2"/>
<path d="M267.51 142.904L225.402 167.19L225.567 215.513L267.593 191.228L267.51 142.904ZM227.962 211.383L227.879 191.228V188.584L227.797 168.429L245.3 158.351L245.383 178.507V181.15L245.466 201.305L227.962 211.383ZM247.777 199.984L247.695 179.828V177.185L247.612 157.03L265.116 146.952L265.199 167.107V169.751L265.281 189.906L247.777 199.984Z" fill="#2B9FFC"/>
<path d="M269.987 138.361V143.895L227.384 168.594V163.059L269.987 138.361Z" fill="#2B9FFC"/>
<path d="M227.383 163.06V168.594L221.687 165.29V159.756L227.383 163.06Z" fill="#136CB2"/>
<path d="M269.987 138.361L227.383 163.06L221.687 159.756L264.29 135.057L269.987 138.361Z" fill="#3AADEA"/>
<path d="M191.88 83.3474L194.027 86.7342L238.282 61.0444L239.107 55.8403L191.88 83.3474Z" fill="#136CB2"/>
<path d="M239.107 55.8403L238.282 61.0444L241.667 66.4136L244.557 64.6789L239.107 55.8403Z" fill="#095589"/>
<path d="M202.862 77.4823C203.027 75.0868 202.862 73.4347 203.44 71.3696C205.834 62.6136 211.696 55.5097 218.714 49.7274C223.09 46.0928 227.714 43.3669 233.906 43.6147C233.989 43.6147 234.071 43.6973 234.154 43.6973C234.401 43.7799 234.649 43.9451 234.897 44.0277C234.979 44.1103 235.062 44.1103 235.144 44.1929L226.971 39.4845L226.888 39.4019C226.888 39.4019 226.805 39.4019 226.723 39.3193C216.237 33.6196 204.926 46.1754 200.054 54.0228C194.935 62.2006 187.752 80.8691 199.064 87.4774L207.238 92.1858C202.036 89.2121 202.366 83.182 202.862 77.4823Z" fill="#A07318"/>
<path d="M221.026 45.5971C231.924 39.3192 240.759 44.3581 240.759 56.8313C240.759 69.3044 232.007 84.5036 221.108 90.7815C210.21 97.0594 201.375 92.0205 201.375 79.5473C201.375 67.0741 210.127 51.875 221.026 45.5971Z" fill="#F2AE25"/>
<path d="M213.182 89.0466C207.98 89.0466 207.402 82.8513 207.402 80.208C207.402 69.5521 215.163 56.0051 224.411 50.6358C226.723 49.3142 228.869 48.6533 230.686 48.6533C235.887 48.6533 236.465 54.8486 236.465 57.4919C236.465 68.1478 228.704 81.6949 219.457 86.9815C217.145 88.3032 214.998 89.0466 213.182 89.0466Z" fill="#FFC569"/>
<path d="M235.062 51.2139C235.392 52.6181 235.475 54.0224 235.475 55.0136C235.475 66.3304 227.218 80.7035 217.31 86.4031C214.916 87.8074 212.687 88.4682 210.788 88.5508C211.448 88.8813 212.191 89.1291 213.182 89.1291C214.998 89.1291 217.145 88.4682 219.457 87.1466C228.704 81.7773 236.548 68.2303 236.465 57.657C236.465 55.9223 236.3 53.1964 235.062 51.2139Z" fill="#A07318"/>
<path d="M243.814 65.1743L197.33 92.1032L215.494 103.668L248.107 87.8078L246.869 68.2307L243.814 65.1743Z" fill="#2B9FFC"/>
<path d="M72.5745 231.043L0 188.833L0.0825648 208.988L72.6571 251.199L72.5745 231.043Z" fill="#D3EAE6"/>
<path d="M112.619 207.915L72.5747 231.044L72.6573 251.199L112.701 228.07L112.619 207.915Z" fill="#D3EAE6"/>
<path d="M0.0825195 202.711V205.437L50.2819 233.274L0.0825195 202.711Z" fill="#ADD8E3"/>
<path d="M0.0825195 199.489V202.215L50.2819 230.052L0.0825195 199.489Z" fill="#ADD8E3"/>
<path d="M0.0825195 206.014V208.658L50.2819 236.578L0.0825195 206.014Z" fill="#ADD8E3"/>
<path d="M0 196.267L0.0825648 198.911L50.282 226.831L0 196.267Z" fill="#ADD8E3"/>
<path d="M0 189.742V192.468L50.282 220.388L0 189.742Z" fill="#ADD8E3"/>
<path d="M0 192.963V195.689L50.282 223.609L0 192.963Z" fill="#ADD8E3"/>
<path d="M26.8335 204.445V224.601L43.1813 234.1V213.945L26.8335 204.445Z" fill="#DCE1E2"/>
<path d="M112.618 223.692V221.957L80.6655 241.452L112.618 223.692Z" fill="#CFD1D2"/>
<path d="M112.618 220.47V218.735L80.6655 238.23L112.618 220.47Z" fill="#CFD1D2"/>
<path d="M112.618 217.248V215.513L80.6655 234.925L112.618 217.248Z" fill="#CFD1D2"/>
<path d="M112.701 225.178L80.6655 244.673L112.701 226.913V225.178Z" fill="#CFD1D2"/>
<path d="M112.618 210.805V209.071L80.6655 228.482L112.618 210.805Z" fill="#CFD1D2"/>
<path d="M112.618 214.027V212.292L80.6655 231.704L112.618 214.027Z" fill="#CFD1D2"/>
<path d="M40.0439 165.704L0 188.833L72.5745 231.043L112.618 207.914L40.0439 165.704Z" fill="#00BADA"/>
<path d="M66.8774 181.316L26.8335 204.445L43.1813 213.945L83.1427 190.898L66.8774 181.316Z" fill="white"/>
<path d="M57.9602 222.535L98.0042 199.406L112.618 207.914L72.5742 231.043L57.9602 222.535Z" fill="#EDFDFB"/>
<path d="M0 188.833L40.0439 165.704L54.6579 174.212L14.614 197.341L0 188.833Z" fill="#EDFDFB"/>
<path d="M47.0618 178.59L90.2432 203.867L92.9678 202.297L49.869 176.938L47.0618 178.59Z" fill="#0086A5"/>
<path d="M10.4031 192.633L24.7694 200.976L27.494 199.406L13.2928 190.981L10.4031 192.633Z" fill="#0086A5"/>
<path d="M27.4941 189.907L39.7963 197.01L41.4476 196.019L29.3106 188.915L27.4941 189.907Z" fill="#0086A5"/>
<path d="M45.8232 212.457L64.3178 223.113L70.0973 219.809L51.7679 208.988L45.8232 212.457Z" fill="#0086A5"/>
<path d="M9.24731 183.463L26.2557 173.716L40.8696 182.224L23.9439 191.972L9.24731 183.463Z" fill="#ADD8E3"/>
<path d="M31.3745 190.237L37.6494 186.437L43.5941 186.024L44.9977 185.363L47.7223 184.95L47.1444 186.52L46.1536 187.346L45.8234 191.063L39.3833 194.863L31.3745 190.237Z" fill="#0086A5"/>
<path d="M46.6504 175.575C47.1824 174.618 45.2878 172.548 42.4186 170.951C39.5495 169.354 36.7923 168.836 36.2604 169.792C35.7284 170.749 37.623 172.819 40.4922 174.416C43.3613 176.013 46.1185 176.531 46.6504 175.575Z" fill="#00BADA"/>
<path d="M103.428 210.154C103.96 209.197 102.065 207.127 99.1963 205.53C96.3271 203.933 93.5699 203.415 93.038 204.372C92.506 205.328 94.4006 207.398 97.2698 208.995C100.139 210.592 102.896 211.11 103.428 210.154Z" fill="#00BADA"/>
<path d="M122.691 121.097L117.737 118.123L117.572 120.932L118.976 121.758C119.884 122.336 120.627 122.997 121.37 123.906C122.031 124.814 122.526 125.806 122.856 126.879C123.187 127.953 123.269 129.11 123.187 130.184C123.104 131.918 122.526 133.075 121.618 133.653C120.71 134.231 119.554 134.066 118.15 133.24L114.022 130.762L115.178 113.167L122.939 117.793L122.691 121.097ZM117.325 124.154L116.994 129.192L118.398 130.018C118.976 130.349 119.389 130.349 119.802 130.101C120.132 129.853 120.379 129.275 120.379 128.532C120.462 127.788 120.297 127.127 120.049 126.466C119.719 125.806 119.306 125.31 118.728 124.98L117.325 124.154Z" fill="#3A3A3A"/>
<path d="M130.783 137.453L126.985 135.222L126.076 138.113L123.104 136.379L128.471 121.345L131.03 122.914L134.085 142.987L131.113 141.252L130.783 137.453ZM127.893 132.248L130.37 133.735L129.544 126.879L127.893 132.248Z" fill="#3A3A3A"/>
<path d="M144.653 149.1L141.929 147.448L142.424 140.096L138.378 137.7L137.883 145.052L135.158 143.4L136.314 125.805L139.039 127.457L138.543 134.396L142.589 136.792L143.084 129.853L145.809 131.505L144.653 149.1Z" fill="#3A3A3A"/>
<path d="M150.846 145.63L149.524 144.887L149.029 151.826L146.304 150.173L147.46 132.579L150.185 134.231L149.69 141.004L150.763 141.665L153.405 136.213L156.708 138.196L152.992 144.391L155.882 155.956L152.579 153.973L150.846 145.63Z" fill="#3A3A3A"/>
<path d="M98.8301 256.403C98.9127 256.485 98.9952 256.485 99.0778 256.568C99.2429 256.651 99.4906 256.733 99.6557 256.898C99.7383 256.981 99.9034 256.981 99.986 257.064C100.151 257.146 100.316 257.229 100.564 257.311C100.729 257.394 100.812 257.394 100.977 257.477C101.142 257.559 101.224 257.559 101.39 257.642C101.39 257.642 101.472 257.642 101.472 257.724C101.885 257.89 102.298 258.055 102.711 258.137C102.793 258.137 102.876 258.22 102.876 258.22C103.206 258.303 103.619 258.468 103.949 258.55C104.032 258.55 104.032 258.55 104.114 258.633C104.197 258.633 104.279 258.633 104.362 258.716C104.61 258.798 104.857 258.881 105.105 258.881C105.27 258.881 105.435 258.963 105.518 258.963C105.766 259.046 106.013 259.046 106.344 259.129C106.426 259.129 106.509 259.211 106.674 259.211H106.756C107.004 259.294 107.252 259.294 107.499 259.377C107.665 259.377 107.747 259.459 107.912 259.459C108.242 259.542 108.573 259.542 108.903 259.624C108.986 259.624 108.986 259.624 109.068 259.624C109.481 259.707 109.811 259.707 110.224 259.79C110.307 259.79 110.389 259.79 110.472 259.79C110.802 259.79 111.05 259.872 111.38 259.872C111.545 259.872 111.628 259.872 111.793 259.872C112.04 259.872 112.288 259.872 112.536 259.955C112.701 259.955 112.866 259.955 113.031 259.955C113.279 259.955 113.444 259.955 113.692 259.955C113.692 259.955 113.692 259.955 113.774 259.955C113.939 259.955 114.022 259.955 114.187 259.955C114.435 259.955 114.683 259.955 114.93 259.955C115.095 259.955 115.261 259.955 115.426 259.955C115.673 259.955 115.921 259.955 116.086 259.955C116.169 259.955 116.169 259.955 116.251 259.955C116.334 259.955 116.499 259.955 116.582 259.955C116.829 259.955 117.077 259.955 117.407 259.955C117.572 259.955 117.737 259.955 117.903 259.955C118.15 259.955 118.398 259.955 118.646 259.872C118.728 259.872 118.811 259.872 118.893 259.872C118.976 259.872 118.976 259.872 119.058 259.872C119.471 259.872 119.802 259.79 120.214 259.707C120.297 259.707 120.38 259.707 120.38 259.707C120.792 259.624 121.288 259.542 121.701 259.459C121.701 259.459 121.783 259.459 121.866 259.459C121.948 259.459 122.113 259.377 122.196 259.377C122.361 259.377 122.609 259.294 122.774 259.294C122.939 259.294 123.104 259.211 123.269 259.211C123.434 259.129 123.682 259.129 123.847 259.046C124.012 259.046 124.178 258.963 124.343 258.881C124.508 258.798 124.755 258.798 124.921 258.716C125.086 258.633 125.251 258.633 125.416 258.55C125.581 258.468 125.829 258.468 125.994 258.385C126.077 258.385 126.159 258.303 126.242 258.303C126.324 258.303 126.324 258.22 126.407 258.22C126.737 258.137 127.067 257.972 127.398 257.89C127.48 257.89 127.563 257.807 127.645 257.807C128.058 257.642 128.471 257.477 128.801 257.311C128.884 257.229 128.966 257.229 129.131 257.146C129.462 256.981 129.709 256.898 130.04 256.733C130.122 256.651 130.287 256.651 130.37 256.568C130.7 256.403 131.113 256.155 131.443 255.99C131.526 255.907 131.608 255.907 131.691 255.825C131.773 255.742 131.856 255.742 131.939 255.659C132.104 255.577 132.186 255.494 132.351 255.412C132.517 255.329 132.599 255.246 132.764 255.164C132.929 255.081 133.012 254.999 133.177 254.916C133.26 254.833 133.425 254.751 133.507 254.668C133.672 254.585 133.755 254.503 133.838 254.42C133.92 254.338 134.085 254.255 134.168 254.172C134.25 254.09 134.416 254.007 134.498 253.842C134.581 253.842 134.581 253.759 134.663 253.759C134.746 253.677 134.828 253.594 134.911 253.512L134.993 253.429C135.159 253.264 135.324 253.099 135.489 252.933L135.571 252.851C135.737 252.686 135.819 252.52 135.984 252.438L136.067 252.355C136.067 252.355 136.067 252.355 136.067 252.273C136.149 252.19 136.149 252.19 136.149 252.107C136.232 251.942 136.397 251.777 136.48 251.694C136.562 251.612 136.562 251.529 136.645 251.447C136.727 251.281 136.81 251.199 136.892 251.034L136.975 250.951C136.975 250.868 137.058 250.868 137.058 250.786C137.14 250.703 137.14 250.538 137.223 250.455C137.305 250.373 137.305 250.29 137.388 250.125C137.47 250.042 137.47 249.877 137.553 249.794C137.553 249.712 137.636 249.712 137.636 249.629C137.636 249.547 137.636 249.547 137.718 249.464C137.718 249.381 137.801 249.216 137.801 249.134C137.801 249.051 137.883 248.968 137.883 248.803C137.883 248.721 137.966 248.555 137.966 248.473C137.966 248.39 137.966 248.39 138.048 248.308C138.048 248.225 138.048 248.225 138.048 248.142C138.048 248.06 138.048 247.895 138.131 247.812C138.131 247.729 138.131 247.647 138.131 247.482C138.131 247.399 138.131 247.234 138.131 247.151C138.131 247.069 138.131 246.986 138.131 246.903C138.131 246.821 138.131 246.738 138.131 246.738V238.23C138.131 238.395 138.131 238.478 138.131 238.643C138.131 238.726 138.131 238.891 138.131 238.973C138.131 239.056 138.131 239.139 138.131 239.304C138.131 239.386 138.131 239.552 138.048 239.634C138.048 239.717 137.966 239.882 137.966 239.965C137.966 240.047 137.883 240.212 137.883 240.295C137.883 240.378 137.801 240.543 137.801 240.625C137.801 240.708 137.718 240.873 137.718 240.956C137.718 241.038 137.636 241.121 137.636 241.286C137.553 241.369 137.553 241.534 137.47 241.617C137.388 241.699 137.388 241.782 137.305 241.947C137.223 242.03 137.223 242.195 137.14 242.278C137.058 242.36 137.058 242.443 136.975 242.525C136.892 242.691 136.81 242.773 136.727 242.938C136.645 243.021 136.645 243.104 136.562 243.186C136.48 243.351 136.315 243.517 136.232 243.599C136.149 243.682 136.149 243.764 136.067 243.847L135.984 243.93C135.902 244.095 135.737 244.26 135.571 244.343L135.489 244.425C135.324 244.59 135.159 244.756 134.993 244.921L134.911 245.003C134.746 245.169 134.663 245.251 134.498 245.416C134.416 245.499 134.25 245.582 134.168 245.747C134.085 245.829 133.92 245.912 133.838 245.995C133.755 246.077 133.59 246.16 133.507 246.242C133.425 246.325 133.26 246.408 133.177 246.49C133.012 246.573 132.929 246.656 132.764 246.738C132.682 246.821 132.517 246.903 132.351 246.986C132.186 247.069 132.104 247.151 131.939 247.234C131.773 247.316 131.608 247.482 131.361 247.564C131.03 247.729 130.618 247.977 130.287 248.142C130.205 248.225 130.04 248.225 129.957 248.308C129.709 248.473 129.379 248.555 129.049 248.721C128.966 248.803 128.884 248.803 128.719 248.886C128.306 249.051 127.975 249.216 127.563 249.381C127.48 249.381 127.398 249.464 127.315 249.464C126.985 249.629 126.654 249.712 126.324 249.794C126.159 249.877 126.076 249.877 125.911 249.96C125.746 250.042 125.499 250.042 125.333 250.125C125.168 250.207 125.003 250.207 124.838 250.29C124.673 250.373 124.425 250.373 124.26 250.455C124.095 250.538 123.93 250.538 123.765 250.62C123.6 250.703 123.352 250.703 123.187 250.786C123.022 250.786 122.856 250.868 122.691 250.868C122.526 250.951 122.279 250.951 122.113 250.951C121.948 250.951 121.783 251.034 121.618 251.034C121.205 251.116 120.71 251.199 120.297 251.281C120.214 251.281 120.132 251.281 120.132 251.281C119.719 251.364 119.389 251.364 118.976 251.447C118.811 251.447 118.646 251.447 118.563 251.529C118.315 251.529 118.068 251.612 117.82 251.612C117.655 251.612 117.49 251.612 117.325 251.612C117.077 251.612 116.829 251.612 116.499 251.612C116.334 251.612 116.169 251.612 116.086 251.612C115.838 251.612 115.591 251.612 115.426 251.612C115.261 251.612 115.095 251.612 114.93 251.612C114.683 251.612 114.435 251.612 114.187 251.612C114.022 251.612 113.939 251.612 113.774 251.612C113.527 251.612 113.362 251.612 113.114 251.612C112.949 251.612 112.784 251.612 112.618 251.612C112.371 251.612 112.123 251.612 111.875 251.529C111.71 251.529 111.628 251.529 111.463 251.529C111.132 251.529 110.885 251.447 110.554 251.447C110.472 251.447 110.389 251.447 110.307 251.447C109.894 251.364 109.564 251.364 109.151 251.281C109.068 251.281 108.986 251.281 108.986 251.281C108.655 251.199 108.325 251.199 108.077 251.116C107.912 251.116 107.83 251.034 107.665 251.034C107.417 250.951 107.169 250.951 106.921 250.868C106.756 250.868 106.674 250.786 106.509 250.786C106.261 250.703 106.013 250.703 105.683 250.62C105.518 250.62 105.435 250.538 105.27 250.538C105.022 250.455 104.775 250.455 104.527 250.373C104.362 250.373 104.279 250.29 104.114 250.29C103.701 250.207 103.371 250.042 103.041 249.96C102.958 249.96 102.876 249.96 102.876 249.877C102.463 249.712 102.05 249.547 101.637 249.464C101.472 249.381 101.307 249.299 101.142 249.299C100.977 249.216 100.894 249.216 100.729 249.134C100.564 249.051 100.399 248.968 100.151 248.886C100.069 248.803 99.9034 248.803 99.8209 248.721C99.6557 248.638 99.408 248.555 99.2429 248.39C99.1604 248.308 99.0778 248.308 98.9952 248.225C98.7475 248.06 98.4173 247.895 98.1696 247.729C93.5459 245.086 91.2341 241.534 91.2341 238.065V246.573C91.2341 250.042 93.5459 253.594 98.1696 256.238C98.2521 256.155 98.4998 256.238 98.8301 256.403Z" fill="#A07318"/>
<path d="M131.113 247.482C140.195 242.195 140.195 233.604 131.03 228.318C121.866 223.031 107.004 223.031 97.9219 228.318C88.8398 233.604 88.8398 242.195 98.0045 247.482C107.169 252.768 122.031 252.768 131.113 247.482Z" fill="#FFC569"/>
<path d="M114.6 248.307C120.132 248.307 125.581 247.068 129.379 244.838C132.599 242.938 134.498 240.543 134.498 238.312C134.498 235.999 132.599 233.604 129.296 231.704C125.416 229.474 120.049 228.152 114.435 228.152C108.903 228.152 103.453 229.391 99.6555 231.621C96.4355 233.521 94.5365 235.917 94.619 238.147C94.619 240.46 96.518 242.856 99.8206 244.755C103.619 246.986 108.985 248.307 114.6 248.307Z" fill="#F2AE25"/>
<path d="M99.6558 231.621C103.454 229.391 108.903 228.152 114.435 228.152C120.049 228.152 125.416 229.391 129.297 231.704C132.351 233.439 134.168 235.669 134.416 237.817C134.416 237.652 134.416 237.486 134.416 237.321C134.416 235.008 132.517 232.613 129.214 230.713C125.333 228.483 119.967 227.161 114.352 227.161C108.82 227.161 103.371 228.4 99.5732 230.63C96.3532 232.53 94.4542 234.926 94.5368 237.156C94.5368 237.321 94.5368 237.486 94.5368 237.652C94.867 235.504 96.6009 233.356 99.6558 231.621Z" fill="#A07318"/>
<path d="M241.337 244.342L170.001 285.562C167.772 286.883 167.772 290.188 170.084 291.427L222.595 318.934C225.567 320.503 229.118 320.421 232.007 318.769L302.6 278.045C304.829 276.723 304.829 273.419 302.518 272.18L249.263 244.26C246.704 242.856 243.814 242.938 241.337 244.342Z" fill="#2B9FFC"/>
<path d="M281.711 279.201C284.188 279.201 286.583 278.623 288.316 277.632C289.803 276.806 290.628 275.732 290.628 274.658C290.628 273.584 289.803 272.51 288.316 271.684C286.583 270.693 284.188 270.115 281.629 270.115C279.152 270.115 276.757 270.693 275.024 271.684C273.537 272.51 272.712 273.584 272.712 274.658C272.712 275.732 273.537 276.806 275.024 277.632C276.84 278.623 279.234 279.201 281.711 279.201Z" fill="#F2AE25"/>
<path d="M273.537 283.744C276.014 283.744 278.409 283.166 280.143 282.175C281.629 281.349 282.454 280.275 282.454 279.201C282.454 278.127 281.629 277.053 280.143 276.227C278.409 275.236 276.014 274.658 273.455 274.658C270.978 274.658 268.584 275.236 266.85 276.227C265.364 277.053 264.538 278.127 264.538 279.201C264.538 280.275 265.364 281.349 266.85 282.175C268.666 283.166 271.06 283.744 273.537 283.744Z" fill="#FF6329"/>
<path d="M221.191 309.352L245.465 295.557" stroke="white" stroke-width="2" stroke-miterlimit="10" stroke-linecap="round"/>
<path d="M202.614 301.091L216.403 293.161" stroke="white" stroke-width="2" stroke-miterlimit="10" stroke-linecap="round"/>
<path d="M220.283 290.601L234.154 282.753" stroke="white" stroke-width="2" stroke-miterlimit="10" stroke-linecap="round"/>
<path d="M237.87 280.44L251.658 272.593" stroke="white" stroke-width="2" stroke-miterlimit="10" stroke-linecap="round"/>
<path d="M255.538 270.032L269.327 262.185" stroke="white" stroke-width="2" stroke-miterlimit="10" stroke-linecap="round"/>
</svg>
