<svg width="207" height="246" viewBox="0 0 207 246" fill="none" xmlns="http://www.w3.org/2000/svg">
<path d="M84 206.002C77.9335 202.497 31.8287 175.656 25.5 172.002C30.4431 166.596 67.5569 125.908 72.5 120.502C91.9582 131.738 111.52 143.335 131 154.502C126.019 159.908 88.9431 200.558 84 206.002Z" fill="#4A4F59"/>
<path d="M29.6408 156.418L29.6406 156.418C25.3531 161.097 21.0748 165.776 16.7964 170.455C12.5184 175.134 8.24021 179.813 3.95261 184.491C2.61568 185.967 1.74407 187.512 1.53367 189.464C1.29273 191.833 2.12873 193.851 3.34643 195.869C4.65477 196.646 5.96257 197.426 7.27074 198.207C10.7601 200.288 14.2522 202.371 17.7649 204.415C27.501 210.082 37.1995 215.712 46.9355 221.341L46.6852 221.774L46.9355 221.341C48.0215 221.969 49.1035 222.6 50.1842 223.229C53.0224 224.883 55.852 226.531 58.7228 228.122C64.4227 231.267 71.4685 230.42 75.7523 225.796L75.7539 225.795C78.0725 223.315 80.3493 220.829 82.6265 218.342C84.3235 216.489 86.0207 214.635 87.7356 212.784L96.1583 203.616L96.1599 203.614L103.18 195.898L110.198 188.185C110.198 188.184 110.199 188.183 110.2 188.182C111.072 187.202 111.965 186.241 112.851 185.287C113.447 184.646 114.039 184.009 114.62 183.371L114.622 183.369C116.888 180.908 119.163 178.447 121.438 175.986L121.441 175.983C123.715 173.523 125.988 171.064 128.252 168.605C128.253 168.605 128.253 168.605 128.253 168.605L134.038 162.286L139.823 155.967L29.6408 156.418ZM29.6408 156.418C48.1018 136.248 66.5627 116.042 84.986 95.8721C85.2336 95.6119 88.0538 92.511 90.8223 89.4645C92.2453 87.8986 93.6614 86.3396 94.7216 85.1721L96.0016 83.7626L96.3597 83.3682L96.454 83.2643L96.476 83.2401M29.6408 156.418L96.476 83.2401M96.476 83.2401L96.4831 83.2333C96.4947 83.2224 96.5142 83.2047 96.5412 83.1816C96.5952 83.1352 96.6789 83.0679 96.79 82.9912C97.0129 82.8373 97.3411 82.6492 97.7573 82.5159C98.5722 82.2548 99.7681 82.1875 101.247 83.095L101.481 83.2382L101.727 83.1187C101.969 83.0012 102.238 82.7917 102.5 82.5823C102.551 82.5419 102.602 82.5004 102.655 82.4579C102.894 82.2661 103.157 82.0547 103.46 81.8338C104.195 81.2984 105.139 80.7249 106.367 80.3665C108.381 79.7787 111.244 79.7458 115.292 81.579L114.939 81.5966V82.0723C114.939 83.4118 114.348 84.386 113.402 85.2113C112.434 86.0558 111.129 86.7143 109.747 87.4093L109.725 87.4206C108.379 88.0974 106.96 88.8111 105.883 89.7549C104.779 90.7233 104.004 91.9603 104.004 93.6675V93.9568L104.038 93.9759C101.468 96.0682 98.7314 98.2848 95.9887 100.506L95.7453 100.703C90.6905 104.797 85.6327 108.894 81.5928 112.241C77.5822 115.563 74.533 118.179 73.5101 119.309L72.1713 120.642L72.164 120.649L72.1569 120.657C68.7107 124.387 65.302 128.116 61.8933 131.883C60.8899 132.982 59.9156 134.119 58.9473 135.249C58.4677 135.809 57.9895 136.367 57.51 136.918C57.2882 137.157 57.0754 137.387 56.863 137.617L56.8595 137.621L56.8568 137.624C56.6428 137.856 56.429 138.087 56.2061 138.327C55.637 138.932 55.0622 139.538 54.4852 140.146C53.3597 141.332 52.226 142.527 51.111 143.736L51.1103 143.737C49.2548 145.756 47.4185 147.806 45.5881 149.85C44.2437 151.351 42.9025 152.848 41.5592 154.327L41.5529 154.334C41.1899 154.732 40.8094 155.149 40.4632 155.605C40.1944 155.881 39.9246 156.157 39.6545 156.432C38.8102 157.294 37.9637 158.158 37.1407 159.062L37.1399 159.063L37.1395 159.063C33.3596 163.237 29.5787 167.411 25.8351 171.585C22.2655 175.285 18.8382 179.124 15.3539 183.027L15.0433 183.374L14.6338 183.833L15.1664 184.141C25.9892 190.387 36.7187 196.597 47.433 202.8C56.0342 207.779 64.6256 212.752 73.2476 217.733L73.5984 217.936L73.8694 217.635C77.4261 213.683 80.908 209.807 84.3897 205.93C87.8706 202.166 91.3536 198.4 94.7995 194.597C95.8434 193.475 96.8505 192.29 97.8381 191.128C98.202 190.7 98.5632 190.275 98.9227 189.858L100.376 188.3L96.476 83.2401ZM103.567 184.935C102.93 185.663 102.236 186.375 101.555 187.074C101.153 187.487 100.755 187.895 100.376 188.299L103.567 184.935ZM103.567 184.935L103.568 184.934C107.386 180.723 111.205 176.51 115.024 172.261C115.024 172.26 115.025 172.26 115.025 172.26L115.529 171.702L116.033 171.145C116.033 171.144 116.034 171.144 116.034 171.143C118.513 168.434 120.994 165.721 123.476 163.008C125.964 160.288 128.452 157.568 130.937 154.852L130.942 154.846L130.947 154.841C131.117 154.644 131.275 154.454 131.43 154.269C131.702 153.943 131.961 153.633 132.242 153.329C133.739 151.765 135.24 150.195 136.705 148.587C138.541 146.573 140.358 144.549 142.174 142.526C143.99 140.504 145.805 138.483 147.638 136.472C148.685 135.337 149.741 134.211 150.799 133.083L150.8 133.081C151.857 131.954 152.916 130.826 153.965 129.688C154.626 128.977 155.277 128.258 155.934 127.533L156.038 127.419C156.731 126.654 157.431 125.883 158.158 125.103L158.588 124.643L158.042 124.329C156.003 123.155 153.982 121.987 151.973 120.826C149.263 119.259 146.574 117.704 143.886 116.163C139.189 113.462 131.759 109.083 124.325 104.701L124.322 104.7C117.417 100.631 110.51 96.5599 105.794 93.8342C107.473 92.4647 109.066 91.1581 110.527 89.9498C114.285 86.8412 117.198 84.3553 118.391 83.1329C118.685 83.2632 118.977 83.4145 119.268 83.585L119.272 83.5872L179.327 118.07C177.883 118.185 176.49 118.63 175.295 119.645C174.802 120.058 174.354 120.525 173.928 120.99C173.782 121.151 173.639 121.31 173.498 121.467C173.223 121.773 172.955 122.072 172.674 122.365L172.671 122.368C172.212 122.853 171.731 123.338 171.19 123.879C170.912 123.314 170.647 122.781 170.392 122.267C170.007 121.491 169.644 120.758 169.289 120.031L168.766 118.962L168.368 120.084C168.116 120.796 168.075 121.426 168.116 122.036L168.116 122.037C168.254 124.06 167.436 125.722 166.073 127.222L166.069 127.227C164.948 128.491 163.828 129.718 162.704 130.949L103.567 184.935ZM162.704 130.95L156.918 137.269L151.133 143.588L151.132 143.589C149.246 145.653 147.353 147.724 145.461 149.796C143.58 151.855 141.699 153.915 139.823 155.966L162.704 130.95ZM115.917 82.565C116.41 82.5753 116.883 82.6434 117.344 82.7639C116.822 83.2691 116.076 83.9411 115.144 84.7506C115.559 84.1258 115.838 83.4069 115.917 82.565ZM110.242 88.2796C110.903 87.9475 111.58 87.6066 112.226 87.2344C111.497 87.8457 110.716 88.496 109.89 89.1793C108.394 90.4168 106.758 91.7579 105.033 93.1644C105.163 92.0675 105.718 91.2295 106.543 90.5068C107.511 89.6581 108.815 88.9973 110.197 88.3026L110.242 88.2796Z" fill="#EDFDFB" stroke="#D3EAE6"/>
<path opacity="0.51" d="M191.047 159.287C195.279 161.636 199.51 164.022 203.742 166.371C207.974 168.72 208.123 171.553 203.929 174.126C200.372 176.326 196.702 178.302 193.107 180.39C192.583 180.688 192.058 181.023 191.459 181.359C192.433 184.677 191.085 187.138 188.426 188.89C185.88 190.568 183.258 192.134 180.562 193.513C168.728 199.628 156.858 205.631 145.024 211.708C136.823 215.883 128.622 220.097 120.458 224.31C109.224 230.089 97.9897 235.83 86.7928 241.646C82.7484 243.734 78.5917 245.188 73.9857 245.039C68.9302 244.89 64.399 243.25 60.0551 240.752C45.4505 232.363 30.8084 223.974 16.2038 215.585C14.1442 214.392 12.122 213.236 10.0998 212.006C7.55338 210.44 6.35505 207.793 7.62827 204.065C7.85296 204.139 8.1151 204.214 8.30233 204.363C15.4923 208.539 22.6823 212.714 29.9097 216.89C39.8708 222.632 49.8319 228.374 59.7555 234.152C62.7139 235.868 65.7097 237.135 69.2298 236.986C71.5141 236.874 73.6112 236.24 75.6708 235.383C75.8581 235.495 76.0453 235.718 76.27 235.756C79.2284 236.054 82.0369 235.718 84.6957 234.115C89.3392 231.356 94.0577 228.709 98.7386 226.025C104.056 222.967 109.411 219.91 114.729 216.853C120.87 213.348 127.012 209.806 133.116 206.302C138.433 203.244 143.788 200.224 149.106 197.167C155.285 193.625 161.501 190.083 167.68 186.504C170.638 184.789 173.559 183.074 176.48 181.359C177.828 180.613 179.176 179.905 180.524 179.122C184.119 177.071 187.714 175.021 191.384 172.896C191.047 169.876 190.86 166.93 190.411 164.022C190.149 162.27 190.186 160.741 191.047 159.287Z" fill="#527281"/>
<path d="M75.633 235.308C73.5734 236.166 71.4763 236.837 69.192 236.911C65.6719 237.061 62.6386 235.793 59.7177 234.078C49.794 228.299 39.8329 222.557 29.8718 216.816C22.6819 212.64 15.4545 208.464 8.26451 204.288C8.03982 204.176 7.81513 204.102 7.59045 203.99C5.08145 201.977 3.99546 199.143 2.98438 196.235C7.81513 199.106 12.6459 202.051 17.5141 204.885C27.2131 210.552 36.9495 216.182 46.6859 221.812C50.6179 224.086 54.5125 226.398 58.4819 228.597C64.3987 231.878 71.6635 230.983 76.1198 226.174C80.1267 221.849 84.0962 217.487 88.1031 213.162C90.9117 210.105 93.7577 207.047 96.5288 203.99C101.21 198.845 105.891 193.7 110.572 188.555C112.032 186.951 113.53 185.348 114.991 183.745C119.522 178.824 124.09 173.902 128.622 168.981C132.479 164.768 136.336 160.555 140.193 156.342C143.975 152.203 147.72 148.102 151.502 143.963C155.359 139.75 159.216 135.537 163.073 131.324C164.197 130.094 165.32 128.864 166.444 127.596C167.829 125.993 168.728 124.24 168.616 122.041C168.578 121.481 168.616 120.922 168.84 120.288C169.552 121.705 170.226 123.122 171.05 124.762C171.799 124.017 172.398 123.383 173.035 122.749C173.896 121.854 174.645 120.848 175.618 120.065C177.191 118.76 179.064 118.461 181.048 118.611C183.932 119.766 185.692 121.705 185.991 124.912C186.403 129.386 186.928 133.897 187.377 138.371C186.329 138.296 185.243 138.035 184.231 138.184C179.7 138.93 175.993 141.204 173.072 144.709C172.96 144.709 172.847 144.709 172.772 144.672C172.361 140.049 171.949 135.463 171.537 130.765C170.675 131.995 170.001 133.263 169.065 134.307C161.201 142.957 153.3 151.569 145.398 160.182C133.153 173.567 120.907 186.989 108.662 200.374C99.8991 209.955 91.1364 219.575 82.3736 229.157C80.2765 231.394 78.3667 233.78 75.633 235.308Z" fill="#D3EAE6"/>
<path d="M191.048 159.287C190.187 160.741 190.187 162.269 190.449 163.947C190.898 166.855 191.123 169.801 191.422 172.821C187.752 174.909 184.157 176.996 180.563 179.047C179.214 179.793 177.866 180.538 176.518 181.284C176.293 179.01 176.031 176.773 175.807 174.573C177.042 174.051 178.128 173.566 179.139 173.119C179.139 172.485 179.177 172.075 179.139 171.628C178.915 169.055 178.653 166.445 178.391 163.873C177.979 159.51 177.604 155.111 177.155 150.749C177.005 149.369 176.743 147.99 176.518 146.573C176.518 146.461 176.481 146.387 176.481 146.275C176.968 145.977 177.417 145.716 177.904 145.417C180.712 143.516 183.633 141.987 187.228 142.807C187.303 142.845 187.415 142.696 187.715 142.509C187.715 141.353 187.715 140.048 187.715 138.744C189.662 139.228 190.936 140.533 191.834 142.211C193.407 145.194 193.669 148.363 193.108 151.569C192.583 154.216 191.722 156.714 191.048 159.287Z" fill="#D3EAE6"/>
<path d="M187.677 138.743C187.677 140.048 187.677 141.316 187.677 142.509C187.377 142.695 187.265 142.807 187.19 142.807C183.595 141.987 180.674 143.478 177.866 145.417C177.416 145.715 176.929 145.976 176.443 146.275C175.319 145.753 174.196 145.268 173.072 144.746C175.993 141.241 179.701 138.967 184.232 138.221C185.243 138.035 186.329 138.333 187.377 138.408C187.452 138.52 187.565 138.631 187.677 138.743Z" fill="#EDFDFB"/>
<path d="M100.012 187.995C99.5256 188.517 99.0388 189.039 98.552 189.561C98.2524 189.263 97.9902 188.927 97.6532 188.704C92.9723 185.982 88.3287 183.26 83.6478 180.576C82.5618 179.942 81.4009 179.42 80.24 178.823C75.3344 184.23 70.6159 189.412 65.8601 194.632C66.1597 194.967 66.2346 195.154 66.3843 195.228C69.7172 197.167 73.05 199.068 76.3829 201.007C78.9293 202.499 81.4758 204.064 84.0222 205.593C80.5396 209.471 77.057 213.348 73.4994 217.3C54.1389 206.115 34.8908 194.967 15.418 183.708C19.0504 179.681 22.533 175.729 26.2029 171.926C31.9324 175.244 37.6245 178.562 43.4663 181.955C48.4094 176.549 53.1278 171.367 58.1084 165.923C52.1917 162.381 46.4996 159.175 40.845 155.894C41.2195 155.484 41.5939 155.074 41.931 154.626C43.9906 155.782 46.0502 156.938 48.1099 158.094C51.8172 160.219 55.5245 162.381 59.3442 164.581C64.2124 159.212 69.0431 153.955 73.9488 148.549C71.5147 147.132 69.3427 145.865 67.1333 144.597C63.6132 142.584 60.1306 140.608 56.6105 138.632C57.0599 138.147 57.4718 137.7 57.9212 137.215C59.7561 138.333 61.591 139.489 63.4634 140.57C67.3205 142.807 71.1777 145.045 75.1097 147.319C80.0153 141.913 84.8835 136.581 89.8266 131.1C87.2053 129.572 84.8461 128.192 82.4869 126.813C79.1915 124.874 75.8586 122.898 72.5632 120.959C73.0126 120.512 73.462 120.064 73.9113 119.617C74.4731 119.915 75.0348 120.176 75.559 120.475C80.3898 123.271 85.2206 126.104 90.0888 128.901C99.226 134.195 108.401 139.452 117.538 144.746C122.331 147.505 127.125 150.227 131.918 152.986C131.469 153.508 131.057 154.03 130.607 154.515C128.136 153.098 125.627 151.718 123.155 150.302C119.448 148.176 115.74 146.051 111.996 143.889C107.053 149.332 102.184 154.664 97.2413 160.07C103.57 163.724 109.636 167.266 115.703 170.77C115.366 171.143 115.029 171.516 114.692 171.889C114.243 171.702 113.756 171.59 113.306 171.329C107.614 168.049 101.96 164.73 96.1179 161.3C91.2871 166.594 86.4563 171.851 81.5507 177.258C83.9848 178.674 86.1193 179.905 88.2538 181.135C92.1484 183.521 96.0804 185.758 100.012 187.995ZM91.2496 131.958C86.3065 137.401 81.4758 142.733 76.4952 148.176C83.1235 151.979 89.4147 155.633 95.8183 159.324C100.799 153.881 105.667 148.549 110.573 143.106C104.019 139.34 97.6532 135.686 91.2496 131.958ZM59.7935 166.893C56.6479 169.577 45.7881 181.732 45.3387 183.074C51.5925 186.69 57.8463 190.307 64.2124 194.035C69.0806 188.704 73.9113 183.372 78.8544 177.929C72.3011 174.088 66.0473 170.472 59.7935 166.893ZM60.6548 165.476C67.2082 169.242 73.6118 172.97 80.0902 176.698C85.0333 171.292 89.8266 166.035 94.7697 160.592C88.1415 156.752 81.7754 153.06 75.3718 149.369C70.3913 154.776 65.5979 160.033 60.6548 165.476Z" fill="#252B36"/>
<path d="M131.919 153.06C127.125 150.301 122.332 147.58 117.539 144.821C108.401 139.564 99.2268 134.269 90.0895 128.975C85.2588 126.179 80.428 123.345 75.5598 120.549C75.0355 120.251 74.4738 119.952 73.9121 119.691C77.8441 115.329 81.7387 111.004 85.6707 106.642C86.9065 105.263 88.2171 103.958 89.4529 102.616C89.7151 102.802 89.9397 102.988 90.2019 103.138C95.2948 106.083 100.425 109.066 105.518 112.011C114.318 117.119 123.156 122.189 131.956 127.297C137.049 130.243 142.142 133.225 147.235 136.208C143.602 140.235 139.97 144.299 136.3 148.325C134.877 149.928 133.379 151.494 131.919 153.06Z" fill="#36A600"/>
<path d="M147.27 136.208C142.177 133.226 137.084 130.243 131.991 127.297C123.191 122.19 114.354 117.119 105.553 112.011C100.46 109.066 95.3301 106.12 90.2372 103.138C89.9751 102.988 89.713 102.802 89.4883 102.616C90.5368 101.385 91.5854 100.118 92.6339 98.8873C95.2178 95.9419 99.5617 90.7968 99.5617 90.7968C99.5617 90.7968 153 122.04 157.793 124.799C156.37 126.365 154.984 127.894 153.599 129.385C151.502 131.697 149.367 133.934 147.27 136.208Z" fill="#252B36"/>
<path d="M176.479 146.536C176.704 147.915 176.966 149.295 177.116 150.711C177.565 155.074 177.94 159.473 178.352 163.835C178.614 166.408 178.876 169.018 179.101 171.59C179.138 172 179.101 172.448 179.101 173.082C178.052 173.529 177.004 173.976 175.768 174.536C175.992 176.698 176.217 178.972 176.479 181.247C173.558 182.962 170.6 184.714 167.679 186.392C161.5 189.971 155.321 193.513 149.105 197.055C143.787 200.112 138.432 203.17 133.115 206.189C126.973 209.694 120.832 213.236 114.728 216.741C109.41 219.798 104.055 222.855 98.7377 225.913C94.0568 228.597 89.3383 231.207 84.6948 234.003C82.036 235.606 79.2275 235.942 76.2691 235.644C76.0444 235.606 75.8572 235.383 75.6699 235.271C78.4036 233.742 80.3134 231.356 82.3731 229.119C91.1733 219.537 99.8986 209.955 108.661 200.336C120.907 186.951 133.152 173.529 145.398 160.144C153.299 151.532 161.201 142.919 169.065 134.269C170.001 133.225 170.675 131.995 171.536 130.727C171.948 135.425 172.36 140.048 172.772 144.634C172.66 144.783 172.585 144.97 172.472 145.082C168.203 149.668 165.32 154.999 163.972 161.114C163.597 162.866 162.998 164.693 163.522 166.557C164.721 166.557 165.807 166.557 166.968 166.557C167.23 163.276 167.679 160.107 168.952 157.124C170.712 153.135 172.959 149.369 176.479 146.536Z" fill="#252B36"/>
<path d="M176.48 146.536C172.922 149.369 170.713 153.098 168.953 157.162C167.679 160.144 167.193 163.276 166.968 166.595C165.807 166.595 164.721 166.595 163.523 166.595C162.999 164.73 163.56 162.903 163.972 161.151C165.32 155.074 168.204 149.705 172.473 145.119C172.585 144.97 172.697 144.821 172.772 144.672C172.885 144.709 172.96 144.709 173.072 144.709C174.195 145.231 175.319 145.716 176.442 146.238C176.48 146.35 176.48 146.461 176.48 146.536Z" fill="#383D46"/>
<path d="M91.2502 131.958C97.6537 135.686 104.02 139.34 110.611 143.143C105.668 148.549 100.799 153.881 95.8562 159.361C89.4901 155.67 83.1615 152.016 76.5332 148.214C81.4763 142.733 86.3071 137.401 91.2502 131.958Z" fill="#4A4F59"/>
<path d="M59.7927 166.892C66.0465 170.509 72.3003 174.125 78.8536 177.891C73.9105 183.335 69.0798 188.666 64.2116 193.998C57.8454 190.307 51.5542 186.653 45.3379 183.036C45.7873 181.694 56.6846 169.577 59.7927 166.892Z" fill="#4A4F59"/>
<path d="M60.6543 165.476C65.5974 160.069 70.3907 154.775 75.3338 149.369C81.7374 153.097 88.1409 156.751 94.7317 160.591C89.7886 166.035 84.9953 171.292 80.0522 176.698C73.6112 172.97 67.2077 169.241 60.6543 165.476Z" fill="#2B9FFC"/>
<g opacity="0.32" filter="url(#filter0_f)">
<path d="M62.5 165.002C60 118.002 56.5 78.5018 54.5 57.5018L133.499 108.502L93 161.002L80.5 175.002L62.5 165.002Z" fill="#34B5FD"/>
</g>
<path d="M127.163 113.651L68.6035 76.8588C63.5954 74.0015 59.5439 67.6147 59.5439 62.6286L56.5386 3.50525C60.1883 1.69371 63.166 0.186288 64.0519 0.0529037C65.4513 -0.159456 66.6223 0.263523 68.6035 1.39387L126.225 34.3362C131.233 37.1935 135.285 43.5803 135.285 48.5664V105.935C135.285 108.007 134.585 109.518 133.408 110.371C131.753 111.572 131.671 111.397 127.163 113.651Z" fill="#34B5FD"/>
<path d="M120.681 112.806L63.0596 79.8641C58.0515 77.0069 54 70.6201 54 65.6339V8.26491C54 3.27874 58.0515 1.54198 63.0596 4.39923L120.681 37.3416C125.689 40.1988 129.741 46.5856 129.741 51.5718V108.941C129.741 113.927 125.689 115.664 120.681 112.806Z" fill="#2B9FFC"/>
<g opacity="0.5">
<path opacity="0.5" d="M72.2871 63.2253L101.886 80.1447V84.9068L72.2871 67.9314V63.2253Z" fill="white"/>
</g>
<g opacity="0.5">
<path opacity="0.5" d="M99.4098 75.6623L72.2871 60.1435V55.3814L99.4098 70.9002C102.448 72.637 104.924 71.5725 104.924 68.5472V61.0399C104.924 58.0146 102.448 54.1489 99.4098 52.4121L77.7454 40.0308V35.2687L99.466 47.7061C105.149 50.9555 109.707 58.1827 109.707 63.7851V71.2924C109.707 76.9509 105.093 78.8557 99.4098 75.6623Z" fill="white"/>
</g>
<path d="M95.0783 39.8628L91.3081 37.7339V28.4338L95.0783 30.5628V39.8628Z" fill="#2B9FFC"/>
<path d="M109.652 69.0516V63.7853C109.652 58.1268 105.038 50.9557 99.4111 47.7062L97.2165 46.4737V43.3924L94.6843 41.9357V37.5098L97.2165 38.9664V39.6387L103.575 43.2803V40.5911L97.2165 36.9496V37.6219L94.6843 36.1652V33.8122L91.3643 31.9074V34.2604L88.8321 32.8037V32.1315L82.4735 28.4899V31.179L88.8321 34.8206V34.1483L91.3643 35.605V40.0309L88.8321 38.5743V41.6556L77.6904 35.2688V39.1905V76.7829L82.4735 79.5281V42.7201L88.8321 46.3617V49.443L97.2165 54.2611V51.1798L99.4111 52.4123C102.45 54.1491 104.926 58.0147 104.926 61.0401V66.3064L103.125 65.2979V66.6985L111.509 71.5166V70.116L109.652 69.0516Z" fill="white"/>
<defs>
<filter id="filter0_f" x="50.5" y="53.5018" width="86.9994" height="125.5" filterUnits="userSpaceOnUse" color-interpolation-filters="sRGB">
<feFlood flood-opacity="0" result="BackgroundImageFix"/>
<feBlend mode="normal" in="SourceGraphic" in2="BackgroundImageFix" result="shape"/>
<feGaussianBlur stdDeviation="2" result="effect1_foregroundBlur"/>
</filter>
</defs>
</svg>
