<svg width="408" height="240" viewBox="0 0 408 240" fill="none" xmlns="http://www.w3.org/2000/svg">
<path d="M146.479 3.14361L0.0237863 80.5679C0.0237475 85.0268 -0.029713 89.7247 0.0237856 92.0604C0.0757999 94.3312 1.23513 97.5682 3.52163 98.7961L243.249 237.734C249.213 240.889 256.336 240.723 262.134 237.402L403.766 155.536C406.092 154.154 407.208 151.694 407.091 149.3C406.983 147.092 407.1 138.851 407.091 137.209L162.381 2.97754C157.038 3.14334 150.037 3.14375 146.479 3.14361Z" fill="#0091F4"/>
<path d="M128.031 1.94141L3.33419 74.0026C-1.13864 76.6595 -1.13863 83.3018 3.49987 85.7926L243.241 224.73C249.204 227.885 256.328 227.719 262.126 224.398L403.766 142.532C408.238 139.875 408.238 133.233 403.6 130.742L182.545 1.94141H128.031Z" fill="#34B5FD"/>
<g filter="url(#filter0_d)">
<path d="M202.365 12.7125L84.0208 79.9605C84.0208 81.4609 84.0372 82.1437 84.021 83.9615C84.0043 85.8461 84.9409 87.7286 86.8487 88.7471L109.66 102.146C114.479 104.681 120.235 104.547 124.92 101.879L239.365 36.116C241.134 35.0715 242.037 33.2604 242.059 31.4486C242.082 29.5581 242.059 29.4481 242.059 27.9478L215.215 12.5791C211.066 10.3114 206.381 10.4449 202.365 12.7125Z" fill="#BDC8CD"/>
</g>
<path d="M202.365 8.69255L86.7148 74.5404C83.1007 76.6518 83.1007 81.9302 86.8487 83.9096L109.66 97.1644C114.479 99.6716 120.235 99.5396 124.92 96.9004L239.365 31.8443C242.979 29.733 242.979 24.4546 239.232 22.4752L215.215 8.56058C211.066 6.31727 206.381 6.44924 202.365 8.69255Z" fill="white"/>
<g filter="url(#filter1_d)">
<path d="M261.379 48.7213L143.035 115.969C143.035 117.47 143.052 118.152 143.035 119.97C143.019 121.855 143.955 123.737 145.863 124.756L168.675 138.155C173.494 140.689 179.249 140.556 183.934 137.888L298.38 72.1248C300.148 71.0803 301.052 69.2692 301.073 67.4574C301.096 65.5668 301.073 65.4569 301.073 63.9566L274.23 48.5879C270.08 46.3202 265.395 46.4536 261.379 48.7213Z" fill="#BDC8CD"/>
</g>
<path d="M261.379 44.7013L145.729 110.549C142.115 112.661 142.115 117.939 145.863 119.918L168.675 133.173C173.494 135.68 179.249 135.548 183.934 132.909L298.38 67.8531C301.994 65.7418 301.994 60.4634 298.246 58.484L274.229 44.5694C270.08 42.3261 265.395 42.458 261.379 44.7013Z" fill="white"/>
<g filter="url(#filter2_d)">
<path d="M320.394 84.7301L202.05 151.978C202.05 153.478 202.066 154.161 202.05 155.979C202.033 157.864 202.97 159.746 204.878 160.765L227.69 174.164C232.508 176.698 238.264 176.565 242.949 173.897L357.394 108.134C359.163 107.089 360.066 105.278 360.088 103.466C360.111 101.576 360.088 101.466 360.088 99.9653L333.244 84.5967C329.095 82.329 324.41 82.4624 320.394 84.7301Z" fill="#BDC8CD"/>
</g>
<path d="M320.394 80.7104L204.744 146.558C201.13 148.67 201.13 153.948 204.878 155.927L227.69 169.182C232.508 171.689 238.264 171.557 242.949 168.918L357.394 103.862C361.009 101.751 361.009 96.4724 357.261 94.493L333.244 80.5784C329.095 78.3351 324.41 78.4671 320.394 80.7104Z" fill="white"/>
<path d="M156.163 17.9453L128.031 1.94141H182.545L156.163 17.9453Z" fill="#2B9FFC"/>
<path d="M210.311 105.019L206.742 106.992L195.039 99.2214L191.844 102.296L189.335 100.647L194.612 95.0863L195.055 94.8936L210.311 105.019Z" fill="#3A3A3A"/>
<path d="M228.813 94.9745L216.323 101.879L214.234 100.468L214.809 93.7899C214.856 92.9267 214.902 92.0634 214.721 91.4044C214.54 90.7455 214.132 90.2907 213.711 90.0517C213.087 89.5853 212.236 89.3232 211.588 89.2884C210.725 89.2421 210.066 89.4231 209.18 89.8084C208.293 90.1937 208.043 90.8295 208.019 91.2611C207.985 91.9085 208.393 92.3633 209.233 92.8412L205.665 94.8139C204.836 94.1202 204.223 93.438 203.827 92.7674C203.657 91.8926 203.692 91.2452 204.17 90.4052C204.648 89.5651 205.557 88.7482 206.887 88.1703C208.671 87.184 210.648 86.6409 212.386 86.5177C214.124 86.3946 215.827 86.9189 217.076 87.8516C217.916 88.3296 218.313 89.0002 218.698 89.8865C219.083 90.7729 219.037 91.6362 218.956 93.1468L218.497 97.6671L226.305 93.3249L228.813 94.9745Z" fill="#3A3A3A"/>
<path d="M237.05 82.6476C239.139 84.0583 240.148 85.411 240.295 86.7175C240.441 88.0239 239.292 89.2608 237.281 90.4514C235.269 91.642 233.303 91.9693 231.145 91.8535C228.987 91.7376 226.864 90.9744 224.775 89.5636L222.062 87.6866C219.974 86.2759 218.749 84.9115 218.818 83.6166C218.888 82.3218 219.82 81.0733 221.82 80.0985C223.832 78.9079 225.798 78.5806 227.956 78.6964C230.114 78.8123 232.237 79.5756 234.326 80.9863L237.05 82.6476ZM230.337 82.72C229.088 81.7873 228.033 81.2977 226.954 81.2398C225.875 81.1819 225.011 81.1355 224.113 81.7366C223.227 82.1219 222.976 82.7577 222.942 83.4052C223.123 84.0642 223.735 84.7463 224.78 85.4517L228.537 88.0341C229.785 88.9669 230.841 89.4564 231.92 89.5143C232.988 89.7881 233.862 89.6186 234.76 89.0175C235.647 88.6323 235.897 87.9964 235.716 87.3374C235.535 86.6784 234.923 85.9962 233.662 85.2793L230.337 82.72Z" fill="#3A3A3A"/>
<path d="M251.768 74.564C253.857 75.9747 254.866 77.3275 255.013 78.6339C255.159 79.9404 254.01 81.1773 251.999 82.3679C249.987 83.5585 248.021 83.8858 245.863 83.77C243.705 83.6541 241.582 82.8908 239.493 81.4801L236.781 79.6031C234.692 78.1924 233.467 76.828 233.536 75.5331C233.39 74.2267 234.538 72.9898 236.539 72.015C238.55 70.8244 240.516 70.4971 242.674 70.6129C244.832 70.7288 246.955 71.4921 249.044 72.9028L251.768 74.564ZM245.055 74.6365C243.807 73.7038 242.751 73.2142 241.672 73.1563C240.593 73.0984 239.729 73.052 238.831 73.6531C237.945 74.0384 237.694 74.6742 237.66 75.3216C237.841 75.9807 238.453 76.6628 239.498 77.3682L243.255 79.9506C244.503 80.8834 245.559 81.3729 246.638 81.4308C247.706 81.7046 248.58 81.5351 249.478 80.934C250.365 80.5487 250.615 79.9129 250.434 79.2539C250.253 78.5949 249.641 77.9127 248.381 77.1958L245.055 74.6365Z" fill="#3A3A3A"/>
<path d="M274.663 67.3529L270.651 69.5183L272.74 70.929L268.955 72.8901L266.867 71.4794L264.4 73.0785L261.892 71.4288L264.358 69.8297L263.518 69.3518L261.063 70.735L258.555 69.0853L261.01 67.7021L253.7 62.7646L260.837 58.8191C262.178 58.0254 263.724 57.4591 265.03 57.3128C266.564 56.9622 267.859 57.0318 269.154 57.1013C270.449 57.1708 271.72 57.6719 272.549 58.3657C274.013 59.31 274.603 60.4238 274.317 61.7071C274.032 62.9904 272.668 64.2157 270.44 65.3947L267.099 67.1632L268.143 67.8686L272.155 65.7032L274.663 67.3529ZM264.806 65.5251L268.147 63.7566C270.159 62.566 270.648 61.5101 268.968 60.5542C268.128 60.0763 267.277 59.8141 266.413 59.7678C265.334 59.7098 264.448 60.0951 263.562 60.4804L260.22 62.2489L264.806 65.5251Z" fill="#3A3A3A"/>
<path d="M136.321 66.34L138.337 65.3549C139.243 64.7478 139.701 64.3354 139.724 63.9C139.747 63.4647 139.552 63.0178 138.922 62.548C138.292 62.0782 137.65 61.8261 136.768 61.9979C135.898 61.9519 135.233 62.1352 134.328 62.7423C133.652 63.1432 133.194 63.5556 132.953 63.9795C132.712 64.4034 132.907 64.8502 133.549 65.1023L129.951 67.0954C129.103 66.6141 128.702 65.9381 128.519 65.2736C128.336 64.6091 128.599 63.7498 129.287 63.1313C129.768 62.2835 130.673 61.6764 131.796 61.0808C133.813 60.0957 135.588 59.5345 137.559 59.4202C139.53 59.3058 141.03 59.8215 142.508 60.7726C143.138 61.2424 143.539 61.9184 143.722 62.583C143.906 63.2475 143.654 63.889 142.966 64.5076C144.295 64.1412 145.613 63.9924 146.69 64.2675C147.767 64.5425 148.843 64.8176 149.691 65.2989C150.951 66.2385 151.547 67.3614 151.272 68.4383C150.985 69.7329 149.84 70.7639 147.812 71.9666C146.013 72.9632 144.019 73.5129 142.049 73.6272C140.078 73.7415 138.348 73.432 137.088 72.4924L140.686 70.4993C141.316 70.9691 141.969 71.0036 142.839 71.0495C143.71 71.0954 144.604 70.706 145.28 70.3051C146.173 69.9156 146.643 69.2856 146.666 68.8502C146.689 68.4149 146.506 67.7503 145.864 67.4982C144.387 66.5471 142.645 66.4553 140.617 67.658L138.601 68.6431L136.321 66.34Z" fill="#3A3A3A"/>
<path d="M150.919 50.3021L153.451 51.9636L153.004 52.1584C151.423 53.1664 150.289 53.9797 150.013 55.0566C149.738 56.1336 150.128 57.0272 151.17 57.9554C151.228 56.867 152.156 55.8245 153.725 55.0341C155.295 54.2438 157.071 53.6826 159.019 54.0036C160.966 54.3246 162.696 54.6342 164.163 55.8029C165.217 56.5134 165.835 57.2009 166.007 58.0831C166.396 58.9768 166.133 59.836 165.663 60.4661C165.182 61.3139 164.276 61.921 163.142 62.7343C161.126 63.7193 159.132 64.2691 156.738 64.1428C154.343 64.0165 152.418 63.2601 150.517 62.0683L149.463 61.3579C147.779 60.1776 146.748 59.0318 146.164 57.6913C145.579 56.3508 145.637 55.2624 146.359 53.9907C147.081 52.7191 148.444 51.6996 150.255 50.4853L150.919 50.3021ZM155.123 57.509C154.447 57.9099 154.218 58.1161 153.966 58.7577C153.725 59.1816 153.702 59.6169 153.897 60.0638L154.733 60.7627C155.787 61.4732 156.864 61.7483 157.941 62.0234C159.029 62.0808 159.911 61.909 160.805 61.5196C161.481 61.1187 161.951 60.4886 161.974 60.0532C162.008 59.4002 161.596 58.9419 160.76 58.2429C159.912 57.7616 159.064 57.2803 157.976 57.2229C156.899 56.9478 156.017 57.1196 155.123 57.509Z" fill="#3A3A3A"/>
<path d="M177.51 46.9026C179.618 48.3235 180.638 49.687 180.786 51.0046C180.935 52.3221 179.778 53.5708 177.75 54.7735C175.722 55.9763 173.74 56.3083 171.563 56.1935C169.386 56.0787 167.244 55.3108 165.136 53.8899L162.398 51.9992C160.29 50.5783 159.053 49.2034 159.122 47.8973C159.191 46.5912 160.13 45.3311 162.147 44.346C164.175 43.1433 166.157 42.8113 168.334 42.9261C170.511 43.0409 172.653 43.8087 174.761 45.2296L177.51 46.9026ZM170.739 46.9821C169.479 46.0425 168.414 45.5497 167.325 45.4923C166.237 45.4349 165.366 45.389 164.461 45.9961C163.567 46.3855 163.315 47.0271 163.281 47.6801C163.464 48.3446 164.083 49.0321 165.137 49.7425L168.928 52.3437C170.189 53.2833 171.254 53.7761 172.342 53.8335C173.419 54.1086 174.302 53.9368 175.207 53.3297C176.1 52.9403 176.353 52.2987 176.169 51.6342C175.986 50.9697 175.367 50.2822 174.096 49.5603L170.739 46.9821Z" fill="#3A3A3A"/>
<path d="M192.336 38.9531C194.444 40.374 195.463 41.7374 195.612 43.055C195.761 44.3726 194.604 45.6212 192.576 46.824C190.777 47.8205 188.577 48.1411 186.618 48.0377C184.441 47.9229 182.299 47.1551 180.191 45.7342L177.453 43.8435C175.345 42.4226 174.108 41.0476 174.177 39.7415C174.028 38.424 175.185 37.1753 177.202 36.1902C179.23 34.9875 181.212 34.6555 183.389 34.7703C185.565 34.8851 187.708 35.653 189.816 37.0739L192.336 38.9531ZM185.576 38.8148C184.316 37.8752 183.251 37.3824 182.162 37.325C181.074 37.2676 180.203 37.2217 179.298 37.8288C178.404 38.2182 178.152 38.8598 178.118 39.5128C178.301 40.1774 178.92 40.8648 179.974 41.5753L183.766 44.1764C185.026 45.116 186.091 45.6088 187.18 45.6662C188.256 45.9413 189.139 45.7695 190.044 45.1624C190.938 44.773 191.19 44.1314 191.006 43.4669C190.823 42.8024 190.205 42.1149 188.933 41.393L185.576 38.8148Z" fill="#3A3A3A"/>
<path d="M215.434 31.4402L211.389 33.628L213.497 35.0489L209.682 37.0305L207.574 35.6096L205.099 37.0071L202.556 35.5632L205.03 34.1658L204.183 33.6845L201.708 35.0819L199.176 33.4204L201.651 32.0229L194.285 26.8321L201.48 22.846C202.832 22.0441 204.39 21.4715 205.708 21.3227C207.255 20.9677 208.561 21.0366 209.867 21.1055C211.173 21.1744 212.456 21.6786 213.292 22.3776C214.77 23.3287 215.366 24.4515 215.079 25.7461C214.792 27.0407 213.417 28.2779 211.172 29.4691L207.803 31.256L208.651 31.7373L212.696 29.5495L215.434 31.4402ZM205.478 29.8236L208.846 28.0368C210.874 26.834 211.367 25.7686 209.671 24.806C208.824 24.3247 207.964 24.0611 207.094 24.0152C206.005 23.9578 205.112 24.3472 204.218 24.7367L200.85 26.5235L205.478 29.8236Z" fill="#3A3A3A"/>
<path d="M263.98 136.237L266.006 135.031L268.541 136.688L266.515 137.894L269.898 140.031L266.304 142.031L262.921 139.894L255.286 144.088L253.164 142.889L250.671 131.849L254.265 129.849L263.98 136.237ZM256.345 140.432L260.386 138.237L254.892 134.683L255.088 135.129L256.345 140.432Z" fill="#3A3A3A"/>
<path d="M279.958 126.794C282.068 128.211 283.09 129.572 283.241 130.89C283.392 132.207 282.237 133.458 280.211 134.664C278.186 135.87 276.204 136.206 274.027 136.095C271.85 135.984 269.706 135.22 267.596 133.803L264.855 131.917C262.744 130.5 261.505 129.127 261.571 127.821C261.42 126.504 262.575 125.253 264.59 124.264C266.616 123.058 268.597 122.722 270.774 122.833C272.951 122.944 275.095 123.708 277.205 125.126L279.958 126.794ZM273.198 126.667C271.936 125.73 270.87 125.239 269.781 125.184C268.704 124.911 267.822 125.084 266.918 125.693C266.025 126.084 265.774 126.726 265.741 127.379C265.925 128.043 266.545 128.729 267.6 129.438L271.397 132.032C272.659 132.97 273.725 133.46 274.813 133.516C275.891 133.789 276.773 133.616 277.677 133.007C278.57 132.616 278.821 131.974 278.636 131.31C278.452 130.646 277.832 129.959 276.559 129.24L273.198 126.667Z" fill="#3A3A3A"/>
<path d="M294.781 118.601C296.891 120.018 297.913 121.379 298.064 122.697C298.215 124.014 297.06 125.265 295.034 126.471C293.008 127.677 291.027 128.013 288.85 127.902C286.673 127.791 284.529 127.027 282.419 125.61L279.678 123.724C277.567 122.307 276.327 120.934 276.394 119.628C276.461 118.322 277.398 117.06 279.413 116.071C281.439 114.865 283.42 114.529 285.597 114.64C287.774 114.751 289.918 115.515 292.028 116.932L294.781 118.601ZM288.021 118.474C286.759 117.537 285.693 117.046 284.604 116.991C283.516 116.935 282.645 116.891 281.741 117.5C280.848 117.891 280.597 118.533 280.564 119.186C280.748 119.85 281.368 120.536 282.423 121.245L286.22 123.839C287.481 124.777 288.548 125.267 289.636 125.323C290.714 125.596 291.596 125.423 292.5 124.814C293.393 124.423 293.644 123.781 293.459 123.117C293.275 122.453 292.655 121.766 291.382 121.047L288.021 118.474Z" fill="#3A3A3A"/>
<path d="M309.603 110.406C311.714 111.824 312.736 113.185 312.887 114.503C313.038 115.82 311.883 117.071 309.857 118.277C307.831 119.483 305.85 119.819 303.673 119.708C301.496 119.597 299.352 118.833 297.242 117.416L294.5 115.53C292.39 114.113 291.15 112.74 291.217 111.434C291.066 110.117 292.221 108.866 294.236 107.877C296.261 106.671 298.243 106.335 300.42 106.446C302.597 106.557 304.741 107.321 306.851 108.738L309.603 110.406ZM302.844 110.28C301.571 109.561 300.504 109.07 299.427 108.797C298.35 108.523 297.468 108.697 296.564 109.305C295.671 109.696 295.42 110.338 295.386 110.992C295.571 111.656 296.191 112.342 297.246 113.051L301.042 115.645C302.304 116.582 303.371 117.073 304.459 117.129C305.537 117.402 306.418 117.229 307.322 116.62C308.215 116.229 308.466 115.587 308.282 114.923C308.098 114.258 307.478 113.572 306.205 112.852L302.844 110.28Z" fill="#3A3A3A"/>
<path d="M332.676 103.071L328.636 105.266L330.746 106.683L326.934 108.671L324.824 107.254L322.351 108.656L319.817 106.999L322.289 105.597L321.44 105.117L318.968 106.519L316.433 104.862L318.906 103.46L311.519 98.5002L318.707 94.5012C320.058 93.697 321.615 93.1215 322.932 92.9704C324.479 92.6127 325.785 92.6792 327.091 92.7458C328.397 92.8123 329.681 93.3143 330.519 94.0118C331.998 94.9602 332.596 96.082 332.312 97.3771C332.027 98.6722 330.655 99.9118 328.411 101.107L325.046 102.9L325.894 103.38L329.935 101.185L332.676 103.071ZM322.729 101.254L326.094 99.4612C328.12 98.2548 328.611 97.1885 326.913 96.229C326.065 95.7492 325.205 95.4871 324.117 95.4316C323.028 95.3762 322.135 95.7672 321.242 96.1582L317.877 97.9511L322.729 101.254Z" fill="#3A3A3A"/>
<g clip-path="url(#clip0)">
<path d="M117.811 76.3782L121.58 73.959L124.03 75.4477L120.261 77.6808L124.03 79.9139L121.015 81.7749L117.246 79.5417L113.477 81.9609L111.027 80.4722L114.796 78.053L111.216 75.8199L114.231 73.959L117.811 76.3782Z" fill="#F2AE25"/>
</g>
<g clip-path="url(#clip1)">
<path d="M176.826 112.387L180.595 109.968L183.045 111.457L179.276 113.69L183.045 115.923L180.03 117.784L176.261 115.551L172.492 117.97L170.042 116.481L173.811 114.062L170.23 111.829L173.245 109.968L176.826 112.387Z" fill="#F2AE25"/>
</g>
<g clip-path="url(#clip2)">
<path d="M235.84 149.396L239.609 146.977L242.059 148.466L238.29 150.699L242.059 152.932L239.044 154.793L235.275 152.56L231.506 154.979L229.056 153.49L232.825 151.071L229.245 148.838L232.26 146.977L235.84 149.396Z" fill="#F2AE25"/>
</g>
<defs>
<filter id="filter0_d" x="63.0208" y="0.943604" width="200.048" height="135.023" filterUnits="userSpaceOnUse" color-interpolation-filters="sRGB">
<feFlood flood-opacity="0" result="BackgroundImageFix"/>
<feColorMatrix in="SourceAlpha" type="matrix" values="0 0 0 0 0 0 0 0 0 0 0 0 0 0 0 0 0 0 127 0"/>
<feOffset dy="11"/>
<feGaussianBlur stdDeviation="10.5"/>
<feColorMatrix type="matrix" values="0 0 0 0 0 0 0 0 0 0 0 0 0 0 0 0 0 0 0.25 0"/>
<feBlend mode="normal" in2="BackgroundImageFix" result="effect1_dropShadow"/>
<feBlend mode="normal" in="SourceGraphic" in2="effect1_dropShadow" result="shape"/>
</filter>
<filter id="filter1_d" x="122.035" y="36.9524" width="200.048" height="135.023" filterUnits="userSpaceOnUse" color-interpolation-filters="sRGB">
<feFlood flood-opacity="0" result="BackgroundImageFix"/>
<feColorMatrix in="SourceAlpha" type="matrix" values="0 0 0 0 0 0 0 0 0 0 0 0 0 0 0 0 0 0 127 0"/>
<feOffset dy="11"/>
<feGaussianBlur stdDeviation="10.5"/>
<feColorMatrix type="matrix" values="0 0 0 0 0 0 0 0 0 0 0 0 0 0 0 0 0 0 0.25 0"/>
<feBlend mode="normal" in2="BackgroundImageFix" result="effect1_dropShadow"/>
<feBlend mode="normal" in="SourceGraphic" in2="effect1_dropShadow" result="shape"/>
</filter>
<filter id="filter2_d" x="181.05" y="72.9612" width="200.048" height="135.023" filterUnits="userSpaceOnUse" color-interpolation-filters="sRGB">
<feFlood flood-opacity="0" result="BackgroundImageFix"/>
<feColorMatrix in="SourceAlpha" type="matrix" values="0 0 0 0 0 0 0 0 0 0 0 0 0 0 0 0 0 0 127 0"/>
<feOffset dy="11"/>
<feGaussianBlur stdDeviation="10.5"/>
<feColorMatrix type="matrix" values="0 0 0 0 0 0 0 0 0 0 0 0 0 0 0 0 0 0 0.25 0"/>
<feBlend mode="normal" in2="BackgroundImageFix" result="effect1_dropShadow"/>
<feBlend mode="normal" in="SourceGraphic" in2="effect1_dropShadow" result="shape"/>
</filter>
<clipPath id="clip0">
<rect width="13.0032" height="8.00196" fill="white" transform="translate(111.027 73.959)"/>
</clipPath>
<clipPath id="clip1">
<rect width="13.0032" height="8.00196" fill="white" transform="translate(170.042 109.968)"/>
</clipPath>
<clipPath id="clip2">
<rect width="13.0032" height="8.00196" fill="white" transform="translate(229.056 146.977)"/>
</clipPath>
</defs>
</svg>
