<svg width="1920" height="893" viewBox="0 0 1920 893" fill="none" xmlns="http://www.w3.org/2000/svg">
<path d="M0 553H1920V893H0V553Z" fill="white"/>
<path d="M1480.06 267.668C1480.06 267.668 1517.71 233.117 1496.28 215.115C1474.84 197.114 1532.19 191.888 1527.27 159.079C1522.05 126.27 1493.67 136.722 1516.84 99.5584C1540.01 62.6847 1500.62 74.5888 1508.15 53.9743C1515.97 33.3599 1515.97 -10.4821 1501.2 2.29304C1486.72 15.0682 1491.64 60.9426 1480.64 60.0716C1469.63 59.2005 1448.78 71.395 1465.29 103.914C1481.51 136.722 1421.55 125.399 1441.25 168.37C1460.94 211.341 1454.86 201.179 1451.68 211.341C1448.2 222.084 1451.68 238.343 1480.06 267.668Z" fill="#00B8A6"/>
<path d="M1484.98 332.124C1484.98 332.124 1478.03 257.215 1488.46 257.215C1498.88 257.215 1496.28 258.957 1500.33 227.019C1504.68 195.082 1516.55 163.434 1526.11 175.338C1535.66 187.242 1543.19 131.496 1556.23 145.142C1568.97 158.789 1533.06 191.597 1543.48 202.05C1553.91 212.502 1548.7 225.277 1527.27 248.505C1505.83 271.732 1549.57 274.346 1533.35 294.96C1516.84 315.865 1484.98 332.124 1484.98 332.124Z" fill="#00A393"/>
<path opacity="0.15" d="M1526.11 439.842C1526.11 445.359 1505.83 449.714 1480.64 449.714C1455.44 449.714 1435.17 445.359 1435.17 439.842C1435.17 434.325 1455.44 429.97 1480.64 429.97C1505.83 429.97 1526.11 434.325 1526.11 439.842Z" fill="#0E2735"/>
<path d="M1501.78 27.8433C1500.62 35.6826 1499.75 43.5219 1498.59 51.3612C1497.44 59.2005 1496.57 67.0398 1495.7 74.8791C1494.83 82.7184 1493.67 90.5577 1493.09 98.397L1490.77 121.625C1489.91 129.464 1489.04 137.303 1488.46 145.142L1486.72 168.66L1484.98 192.178L1483.53 215.696L1482.38 239.214C1482.09 247.053 1481.51 254.893 1481.22 262.732L1480.35 309.768C1480.35 317.607 1479.77 325.446 1480.06 333.286L1480.35 356.803L1480.93 403.839L1477.16 404.13C1476.58 399.194 1476.58 394.839 1476.29 389.903V382.934L1476.58 375.966C1476.87 371.321 1477.45 366.675 1477.74 362.03C1478.32 357.384 1478.9 352.739 1479.77 348.093C1480.64 343.448 1481.22 338.802 1482.09 334.447L1484.98 320.801L1488.46 307.445C1489.62 302.799 1490.77 298.444 1492.22 294.089C1493.67 289.734 1494.54 285.088 1496.28 280.733L1500.62 267.377C1502.07 263.022 1503.52 258.667 1505.25 254.312L1509.89 241.246L1520.32 215.406L1531.61 190.146L1521.18 215.696L1511.34 241.537L1506.99 254.602C1505.54 258.957 1504.1 263.313 1502.65 267.668L1498.59 281.024C1497.15 285.379 1495.99 290.024 1494.83 294.379C1493.67 298.735 1492.22 303.38 1491.35 307.735L1488.17 321.091L1485.56 334.737C1484.69 339.383 1484.11 343.738 1483.24 348.383C1482.38 353.029 1482.09 357.384 1481.51 362.03C1480.93 366.675 1480.64 371.03 1480.35 375.676L1480.06 382.644V389.612C1480.06 394.258 1480.35 398.903 1480.93 403.259L1477.16 403.549L1476.29 356.223L1476 332.705C1476 328.64 1476 324.866 1476 320.801L1476.29 308.897L1477.45 261.571C1477.74 253.731 1478.32 245.892 1478.61 238.053L1480.06 214.535C1480.64 206.695 1480.93 198.856 1481.51 191.017L1483.53 167.499L1485.56 143.981C1486.14 136.142 1487.3 128.302 1488.17 120.463L1490.77 96.9453C1491.64 89.106 1492.8 81.2667 1493.96 73.4274C1495.12 65.5881 1495.99 57.7488 1497.44 50.1998C1498.88 43.5219 1500.33 35.6826 1501.78 27.8433Z" fill="#4F8272"/>
<path d="M1472.53 347.512C1472.53 347.512 1472.53 303.09 1466.45 303.38C1460.36 303.67 1462.1 304.832 1457.76 286.25C1453.7 267.668 1444.72 249.376 1439.8 257.215C1434.88 264.764 1427.35 232.246 1420.4 240.956C1413.45 249.666 1436.62 267.087 1430.82 273.765C1425.32 280.443 1429.09 287.702 1442.99 300.477C1456.89 312.961 1431.11 317.026 1441.83 328.35C1453.12 339.383 1472.53 347.512 1472.53 347.512Z" fill="#00A393"/>
<path d="M1480.06 389.612C1480.06 389.612 1480.06 389.032 1480.06 388.161C1480.06 387.29 1479.77 385.838 1479.77 384.096C1479.77 382.354 1479.19 380.031 1478.9 377.708C1478.61 375.385 1478.03 372.482 1477.45 369.579C1476.87 366.675 1476 363.481 1475.13 359.997C1474.27 356.513 1473.11 353.029 1471.95 349.254C1470.79 345.48 1469.92 341.705 1468.47 337.931C1467.02 334.157 1465.58 330.382 1464.13 326.608C1463.55 324.575 1462.68 322.833 1462.1 320.801C1461.23 319.059 1460.36 317.026 1459.78 315.284C1458.34 311.51 1456.6 308.026 1455.15 304.541C1453.7 301.057 1452.25 297.573 1450.81 294.379C1449.36 291.186 1447.91 288.282 1446.46 285.379C1443.86 279.862 1441.83 275.217 1440.09 272.023C1438.64 268.829 1437.77 266.797 1437.77 266.797C1437.77 266.797 1438.93 268.539 1440.67 271.732C1442.41 274.926 1445.01 279.281 1447.91 284.798C1449.36 287.411 1451.1 290.315 1452.83 293.508C1454.57 296.702 1456.02 300.186 1457.47 303.67C1458.92 307.154 1460.65 310.929 1462.39 314.413C1463.26 316.155 1464.13 318.188 1465 319.93C1465.58 321.962 1466.45 323.704 1467.02 325.737C1468.47 329.511 1469.63 333.576 1471.08 337.35C1472.53 341.125 1473.4 345.19 1474.55 348.674C1475.42 352.448 1476.58 355.932 1477.16 359.416C1477.74 362.901 1478.32 366.094 1478.9 369.288C1479.48 372.192 1479.77 375.095 1479.77 377.708C1480.06 380.321 1480.06 382.354 1480.06 384.096C1480.35 387.58 1480.06 389.612 1480.06 389.612Z" fill="#4F8272"/>
<path d="M1473.11 262.442C1473.11 262.442 1487.01 169.531 1475.42 173.596C1455.44 180.564 1482.09 152.982 1467.31 121.915C1452.54 90.848 1453.12 126.851 1442.7 116.689C1390.57 66.7494 1416.63 115.237 1424.45 127.141C1437.19 146.594 1400.41 127.431 1429.66 166.047C1458.92 204.953 1384.77 163.724 1473.11 262.442Z" fill="#00A393"/>
<path d="M1473.11 291.186C1473.11 291.186 1473.69 234.278 1460.65 226.729C1445.88 218.309 1451.39 226.729 1430.53 213.083C1416.92 204.082 1415.47 227.89 1431.4 233.697C1447.33 239.504 1414.31 249.086 1438.35 261.57C1462.39 274.346 1473.11 291.186 1473.11 291.186Z" fill="#00B8A6"/>
<path d="M1425.61 112.914C1431.11 115.818 1435.75 120.463 1439.22 125.689C1442.7 130.916 1445.59 136.723 1447.91 142.529C1452.54 154.143 1455.73 166.628 1458.92 178.822C1460.36 184.92 1462.1 191.017 1463.26 197.114L1465.29 206.405L1467.02 215.696C1468.18 221.793 1469.34 228.181 1470.21 234.278C1471.08 240.666 1472.24 246.763 1472.82 253.151C1476 278.12 1477.74 303.38 1478.9 328.64C1479.19 335.028 1479.48 341.125 1479.77 347.513L1480.06 366.385C1480.35 378.87 1480.35 391.645 1480.35 404.13H1476.58L1476.87 392.516C1477.16 388.741 1476.87 384.677 1476.87 380.902C1476.87 377.128 1476.87 373.063 1476.87 369.288L1476.58 357.675C1476.29 349.835 1476 342.286 1475.42 334.447C1474.84 326.608 1474.27 319.059 1473.4 311.219C1472.53 303.671 1471.37 295.831 1469.92 288.282L1468.76 282.766L1467.31 277.249C1466.16 273.475 1465 269.991 1463.84 266.216C1462.39 262.732 1460.94 258.957 1459.49 255.473C1457.76 251.989 1456.02 248.505 1453.99 245.311C1451.96 242.118 1449.65 238.924 1447.04 236.02C1444.43 233.117 1441.83 230.213 1438.93 227.6C1444.72 232.536 1450.23 238.343 1454.57 244.731C1456.89 247.924 1458.63 251.409 1460.65 254.893C1462.39 258.377 1464.13 261.861 1465.58 265.635C1467.02 269.41 1468.18 272.894 1469.34 276.669L1471.08 282.185L1472.53 287.992C1474.27 295.541 1475.42 303.38 1476.58 310.929C1478.61 326.317 1479.77 341.996 1480.64 357.384L1480.93 368.998C1481.22 372.772 1481.22 376.837 1481.22 380.612C1481.22 384.386 1481.22 388.451 1481.22 392.226L1480.93 403.839H1477.16C1477.16 391.354 1476.87 378.579 1476.58 366.095L1476 347.222C1475.71 340.835 1475.71 334.737 1475.42 328.35C1474.55 303.09 1472.82 278.12 1469.92 253.151C1469.34 246.763 1468.18 240.666 1467.6 234.569C1466.74 228.471 1465.87 222.084 1464.71 215.987L1462.97 206.696L1461.23 197.404C1460.07 191.307 1458.63 185.21 1457.18 179.113C1454.28 166.918 1451.68 154.434 1447.04 142.82C1444.72 137.013 1442.12 131.206 1438.93 125.98C1435.46 120.754 1431.11 116.108 1425.61 112.914Z" fill="#4F8272"/>
<path d="M1444.44 385.257C1444.44 407.323 1450.81 426.776 1460.65 438.39H1502.94C1512.78 426.776 1519.16 407.323 1519.16 385.257C1519.16 379.45 1518.58 373.934 1518 368.708H1445.59C1445.01 373.934 1444.44 379.741 1444.44 385.257Z" fill="#BF8961"/>
<path opacity="0.15" d="M1395.22 446.704C1395.22 452.579 1296.93 457.386 1175.47 457.386C1054.01 457.386 955.725 452.579 955.725 446.704C955.725 440.83 1054.01 436.023 1175.47 436.023C1296.93 436.023 1395.22 440.563 1395.22 446.704Z" fill="#0E2735"/>
<path d="M994.081 211.72C994.081 213.322 995.412 214.657 997.011 214.657H1137.65C1139.25 214.657 1140.58 213.322 1140.58 211.72V117.993C1140.58 116.391 1139.25 115.056 1137.65 115.056H997.011C995.412 115.056 994.081 116.391 994.081 117.993V211.72Z" fill="#AED4F4"/>
<path d="M994.081 211.72C994.081 213.322 995.412 214.657 997.011 214.657H1137.65C1139.25 214.657 1140.58 213.322 1140.58 211.72V117.993C1140.58 116.391 1139.25 115.056 1137.65 115.056H997.011C995.412 115.056 994.081 116.391 994.081 117.993V211.72Z" fill="#4C626C"/>
<path d="M997.011 115.056H1137.65C1139.25 115.056 1140.58 116.391 1140.58 117.993V211.72C1140.58 213.322 1139.25 214.657 1137.65 214.657H1132.59C1134.19 214.657 1135.52 213.322 1135.52 211.72V123.333C1135.52 121.731 1134.19 120.396 1132.59 120.396H997.011C995.412 120.396 994.081 121.731 994.081 123.333V117.993C994.081 116.391 995.412 115.056 997.011 115.056Z" fill="#33484D"/>
<path d="M1049.75 230.412C1049.75 231.747 1050.82 233.082 1052.41 233.082H1082.51C1083.84 233.082 1085.18 232.014 1085.18 230.412V155.644C1085.18 154.309 1084.11 152.974 1082.51 152.974H1052.15C1050.82 152.974 1049.48 154.042 1049.48 155.644V230.412H1049.75Z" fill="#33484D"/>
<path opacity="0.2" d="M1084.91 219.197V230.412C1084.91 231.747 1083.84 233.082 1082.25 233.082H1052.15C1050.82 233.082 1049.48 232.014 1049.48 230.412V219.197H1084.91Z" fill="#141D1F"/>
<path d="M1031.9 232.548C1031.9 234.15 1033.24 235.485 1034.83 235.485H1099.29C1100.89 235.485 1102.22 234.15 1102.22 232.548V229.611C1102.22 228.008 1100.89 226.673 1099.29 226.673H1035.1C1033.5 226.673 1032.17 228.008 1032.17 229.611V232.548H1031.9Z" fill="#4C626C"/>
<path d="M1266.74 97.1646L1260.88 132.679L1259.55 151.104L1245.7 152.439L1229.18 154.309L1235.84 128.407L1241.44 101.704L1266.74 97.1646Z" fill="#F7D7D0"/>
<path opacity="0.6" d="M1234.51 153.775L1239.84 129.208L1261.94 125.203L1266.74 97.1646L1241.44 101.704L1235.84 128.407L1229.18 154.309L1234.51 153.775Z" fill="#C19891"/>
<path d="M1265.41 44.293C1282.72 51.5028 1280.06 63.7861 1280.06 63.7861C1280.06 63.7861 1280.06 71.2629 1277.66 82.4781C1279.79 80.3418 1282.19 80.0748 1284.59 82.211C1290.71 87.2846 1283.25 103.84 1274.2 100.636C1272.87 105.977 1269.67 112.118 1268.6 113.453C1265.14 118.527 1253.16 122.799 1243.03 122.532C1232.65 121.998 1219.86 110.249 1220.93 97.9657C1222.26 81.1429 1231.05 45.8952 1231.05 45.8952C1231.05 45.8952 1236.64 32.2768 1265.41 44.293Z" fill="#F7D7D0"/>
<path d="M1270.2 55.2412C1275 56.0423 1282.99 55.7753 1287.78 56.3093C1287.78 55.7753 1287.25 59.7807 1287.25 60.0477C1286.18 61.9169 1282.99 81.1429 1282.99 81.1429C1278.19 80.6089 1277.66 84.6143 1277.66 84.6143L1275.53 93.1592L1270.73 91.8241L1273.66 73.3991C1270.73 70.9959 1270.2 68.0586 1270.2 68.0586C1270.2 68.0586 1270.47 58.7126 1270.2 55.2412Z" fill="#573B21"/>
<path d="M1250.23 64.3203C1250.23 64.3203 1251.56 64.8544 1253.16 65.3884C1253.95 65.6555 1255.02 65.9225 1255.82 66.4565C1256.88 66.7236 1257.68 66.9906 1258.75 67.2576C1259.81 67.5247 1260.61 67.7917 1261.68 67.7917C1262.21 67.7917 1262.74 67.7917 1263.01 68.0587C1263.54 68.0587 1263.81 68.0587 1264.34 68.0587C1264.88 68.0587 1265.14 68.0587 1265.67 68.0587C1265.94 68.0587 1266.47 68.0587 1266.74 68.0587C1267.27 68.0587 1267.81 68.0587 1267.81 68.0587C1267.81 68.0587 1267.54 68.3257 1267.27 68.8598C1267.01 69.3938 1266.21 69.9279 1265.41 70.462C1264.88 70.729 1264.61 70.996 1263.81 71.263C1263.28 71.5301 1262.74 71.7971 1261.95 71.7971C1261.41 71.7971 1260.61 72.0641 1259.81 71.7971C1259.02 71.7971 1258.48 71.7971 1257.68 71.5301C1254.75 70.996 1252.62 69.1268 1251.56 67.2576C1250.49 65.6555 1250.23 64.3203 1250.23 64.3203Z" fill="#573B21"/>
<path d="M1242.23 65.655C1242.23 65.655 1241.17 65.121 1239.57 64.5869C1238.77 64.3199 1238.24 64.0528 1237.44 63.7858C1236.64 63.5188 1236.11 63.2518 1235.31 63.2518C1234.51 62.9847 1233.98 63.2518 1233.18 62.9847C1232.91 62.9847 1232.38 62.9847 1232.11 62.9847C1231.85 62.9847 1231.31 62.9847 1231.05 63.2518C1230.25 63.2518 1229.72 63.5188 1229.18 63.5188C1228.65 63.5188 1228.38 63.5188 1228.38 63.5188C1228.38 63.5188 1228.38 63.2518 1228.65 62.7177C1228.92 62.1836 1229.18 61.6496 1229.72 60.8485C1230.25 60.0474 1231.05 59.5134 1232.38 58.9793C1232.91 58.7123 1233.44 58.4453 1234.24 58.4453C1234.78 58.4453 1235.58 58.4453 1236.11 58.4453C1237.44 58.7123 1238.77 59.2463 1239.57 60.0474C1240.37 60.8485 1241.17 61.6496 1241.44 62.4507C1242.23 64.3199 1242.23 65.655 1242.23 65.655Z" fill="#573B21"/>
<path opacity="0.4" d="M1243.03 92.8922L1243.83 72.064L1234.78 90.4889L1243.03 92.8922Z" fill="#B57F74"/>
<path d="M1195.62 270.466C1195.62 270.466 1207.87 259.785 1229.72 264.057L1241.17 244.831L1251.29 268.597C1251.29 268.597 1282.19 263.79 1293.11 249.638C1293.11 249.638 1274.73 260.853 1266.21 247.769C1266.21 247.769 1302.96 155.11 1292.58 146.031C1288.05 142.025 1267.54 134.282 1251.56 131.611L1244.75 139.5L1241.75 129.5C1224.7 127.631 1193.76 130.81 1191.36 142.292C1186.57 166.592 1186.83 263.256 1186.83 263.256L1195.62 270.466Z" fill="#254CAD"/>
<path opacity="0.2" d="M1289.15 181C1276.04 187.928 1245.71 199.918 1187.53 212.174C1187.25 235.622 1187.25 254.806 1187.25 254.806L1196.27 262C1196.27 262 1208.83 251.342 1231.23 255.605L1242.98 236.421L1253.36 260.135C1253.36 260.135 1285.05 255.339 1296.25 241.217C1296.25 241.217 1279.59 252.408 1270.57 239.352C1270.57 238.819 1284.23 196.454 1289.15 181Z" fill="#141D1F"/>
<path d="M1232.11 213.856C1235.31 210.652 1246.5 214.123 1246.5 214.123L1274.46 222.401C1277.66 224.27 1267.01 227.208 1270.47 228.543C1269.14 230.946 1252.36 222.401 1251.56 223.469C1246.76 228.81 1242.77 222.134 1242.77 222.134C1238.77 243.496 1239.3 219.197 1239.3 219.197C1236.11 243.496 1235.58 218.396 1235.58 218.396C1228.38 241.627 1232.38 218.663 1232.38 218.663C1218 236.286 1232.11 213.856 1232.11 213.856Z" fill="#F7D7D0"/>
<path d="M1192.96 138.821C1192.96 138.821 1138.89 212.788 1126.37 235.485C1118.38 250.172 1147.94 249.104 1149.54 238.957C1150.07 235.218 1213.2 159.917 1213.2 159.917L1192.96 138.821Z" fill="#254CAD"/>
<path d="M1233.47 76.7914C1233.05 79.0474 1231.9 80.7715 1230.54 80.3367C1229.37 80.26 1228.53 78.1984 1228.95 75.9424C1229.38 73.6863 1230.53 71.9623 1231.89 72.397C1233.06 72.4737 1233.9 74.5353 1233.47 76.7914Z" fill="#0C181E"/>
<path d="M1258.23 81.7336C1257.81 83.9897 1256.66 85.7137 1255.3 85.2789C1254.13 85.2022 1253.29 83.1406 1253.72 80.8846C1254.14 78.6285 1255.29 76.9045 1256.65 77.3393C1257.82 77.416 1258.38 79.3906 1258.23 81.7336Z" fill="#0C181E"/>
<path d="M1242.5 152.707C1256.35 155.911 1263.54 145.23 1266.74 134.816C1260.88 132.946 1256.62 132.412 1251.29 131.611L1245.16 138.821L1242.23 129.475C1237.71 128.941 1232.11 128.941 1226.25 129.208C1225.99 137.753 1227.58 149.235 1242.5 152.707Z" fill="white"/>
<g opacity="0.1">
<path opacity="0.1" d="M1242.5 152.707C1256.35 155.911 1263.54 145.23 1266.74 134.816C1260.88 132.946 1256.62 132.412 1251.29 131.611L1245.16 138.821L1242.23 129.475C1237.71 128.941 1232.11 128.941 1226.25 129.208C1225.99 137.753 1227.58 149.235 1242.5 152.707Z" fill="#263D49"/>
</g>
<path d="M1226.52 128.674L1235.04 141.758L1242.23 129.208L1232.11 123.066L1226.52 128.674Z" fill="#EAEEF5"/>
<path d="M1267.27 134.281L1257.68 146.832L1251.29 131.344L1263.54 128.14L1267.27 134.281Z" fill="#EAEEF5"/>
<path d="M1257.68 214.924L1251.82 213.055C1251.82 213.055 1248.36 222.401 1251.82 225.605L1260.08 225.872L1257.68 215.725" fill="white"/>
<path d="M1292.84 147.366C1292.84 147.366 1324.27 203.175 1308.03 226.941C1298.97 240.025 1253.42 226.941 1253.42 226.941C1253.42 226.941 1252.09 217.862 1255.55 213.589C1255.55 213.589 1276.06 215.458 1283.79 209.851C1286.72 207.715 1277.93 177.54 1277.93 177.54L1292.84 147.366Z" fill="#254CAD"/>
<path d="M1274.46 57.9115C1274.46 57.9115 1274.2 57.6445 1273.67 57.9115C1271.8 59.2466 1254.49 60.8488 1235.84 53.9061L1245.16 50.9688C1245.16 50.9688 1229.72 52.0369 1222.26 39.2195C1222.26 39.2195 1235.84 26.1351 1255.02 31.2087C1255.02 31.2087 1246.23 26.9362 1241.7 26.6692C1241.7 26.6692 1270.47 21.3286 1283.79 40.8217C1283.79 40.8217 1294.71 41.8898 1291.51 54.9742C1289.11 64.5872 1282.99 80.8759 1282.99 80.8759L1274.46 57.9115Z" fill="#573B21"/>
<path d="M1235.58 100.636C1235.58 100.636 1237.17 100.903 1239.3 101.17C1240.37 101.437 1241.7 101.437 1243.03 101.704C1244.37 101.971 1245.7 101.971 1247.3 102.238C1248.63 102.238 1249.96 102.238 1251.29 102.238C1251.82 102.238 1252.62 102.238 1253.15 101.971C1253.69 101.971 1254.22 101.704 1254.75 101.704C1255.82 101.437 1256.62 101.17 1257.15 100.903C1257.68 100.636 1258.22 100.636 1258.22 100.636C1258.22 100.636 1257.95 100.903 1257.42 101.437C1257.15 101.704 1256.88 101.971 1256.62 102.238C1256.35 102.505 1255.82 102.772 1255.29 103.039C1254.22 103.574 1252.89 104.108 1251.56 104.375C1250.23 104.642 1248.63 104.642 1247.03 104.642C1245.43 104.375 1243.83 104.375 1242.5 103.841C1241.17 103.574 1239.84 103.039 1238.77 102.505C1236.91 101.704 1235.58 100.636 1235.58 100.636Z" fill="#B57F74"/>
<path d="M1120.6 233.883C1120.6 235.752 1122.2 237.355 1124.06 237.355H1243.93C1245.79 237.355 1247.39 235.752 1247.39 233.883V230.412C1247.39 228.543 1245.79 226.94 1243.93 226.94H1124.06C1122.2 226.94 1120.6 228.543 1120.6 230.412V233.883Z" fill="#4C626C"/>
<path d="M1391.76 246.7H967.977V442.966H1391.76V246.7Z" fill="#BF8961"/>
<path opacity="0.1" d="M1368.58 269.665H990.884V423.473H1368.58V269.665Z" fill="#0E2735"/>
<path opacity="0.1" d="M1391.76 246.166H967.977V256.313H1391.76V246.166Z" fill="#0E2735"/>
<path d="M1412 233.883H948V248.303H1412V233.883Z" fill="#886749"/>
<path d="M1369 200.4L1334.5 223.9H1313L1347.5 200.4H1369Z" fill="#EDFBFD"/>
<path d="M1336.5 228.4L1334.5 223.9H1313L1315 228.4H1336.5Z" fill="#D3E3EA"/>
<path d="M1340 233.9L1336.5 228.4L1367 201.9L1369.5 201.9C1371.08 201.868 1371 201.9 1372 203.4C1374.5 212.4 1373.5 208.4 1380.5 233.9L1340 233.9Z" fill="#C9D6DA"/>
<path d="M1340 233.9L1337.5 228.4H1316L1318.5 233.9H1340Z" fill="#33484D"/>
<path d="M1340 233.9L1336.5 228.4L1369.5 205.4L1377 233.9H1340Z" fill="#4C626C"/>
<path d="M1336.5 228.4L1334.5 223.9L1369 200.4L1371 204.9L1336.5 228.4Z" fill="#D3E3EA"/>
<path d="M1363.5 202.4L1333.5 222.4H1317.5L1347.5 202.4H1363.5Z" fill="#33484D"/>
<ellipse cx="1373.57" cy="218.49" rx="4.5" ry="7.5" transform="rotate(-8.62054 1373.57 218.49)" fill="#C9D6DA"/>
<path d="M1369 221.4C1367 215.4 1369 212.4 1371 211.4L1372 211.9L1375.5 225.9L1375 226.4C1371.5 226.4 1370 224.4 1369 221.4Z" fill="#33484D"/>
<path d="M1369.5 220.4C1367.96 215.004 1370 212.4 1372 211.9L1375.5 225.9C1372.5 225.9 1370.5 223.9 1369.5 220.4Z" fill="#4C626C"/>
</svg>
