<svg width="96" height="32" viewBox="0 0 96 32" fill="none" xmlns="http://www.w3.org/2000/svg">
<path d="M15.0481 27.576C12.3361 27.576 9.90013 27.012 7.74013 25.884C5.58012 24.756 3.88812 23.196 2.66412 21.204C1.44012 19.188 0.828125 16.92 0.828125 14.4C0.828125 11.88 1.44012 9.62404 2.66412 7.63204C3.88812 5.61604 5.58012 4.04404 7.74013 2.91604C9.90013 1.78804 12.3361 1.22404 15.0481 1.22404C17.7601 1.22404 20.1961 1.78804 22.3561 2.91604C24.5161 4.04404 26.2081 5.61604 27.4321 7.63204C28.6561 9.62404 29.2681 11.88 29.2681 14.4C29.2681 16.92 28.6561 19.188 27.4321 21.204C26.2081 23.196 24.5161 24.756 22.3561 25.884C20.1961 27.012 17.7601 27.576 15.0481 27.576ZM15.0481 20.7C16.1041 20.7 17.0521 20.448 17.8921 19.944C18.7561 19.416 19.4401 18.684 19.9441 17.748C20.4481 16.788 20.7001 15.672 20.7001 14.4C20.7001 13.128 20.4481 12.024 19.9441 11.088C19.4401 10.128 18.7561 9.39604 17.8921 8.89204C17.0521 8.36404 16.1041 8.10004 15.0481 8.10004C13.9921 8.10004 13.0321 8.36404 12.1681 8.89204C11.3281 9.39604 10.6561 10.128 10.1521 11.088C9.64813 12.024 9.39612 13.128 9.39612 14.4C9.39612 15.672 9.64813 16.788 10.1521 17.748C10.6561 18.684 11.3281 19.416 12.1681 19.944C13.0321 20.448 13.9921 20.7 15.0481 20.7Z" fill="#C4D2DC"/>
<path d="M64.5819 14.292C64.5819 17.604 63.4779 20.232 61.2699 22.176C59.0619 24.096 55.8459 25.2 51.6219 25.488V28.296H43.8459V25.452C39.5979 25.092 36.3699 23.964 34.1619 22.068C31.9779 20.172 30.8859 17.58 30.8859 14.292C30.8859 11.004 31.9779 8.42404 34.1619 6.55204C36.3699 4.65604 39.5979 3.52804 43.8459 3.16804V0.540039H51.6219V3.16804C55.8699 3.48004 59.0859 4.59604 61.2699 6.51604C63.4779 8.41204 64.5819 11.004 64.5819 14.292ZM51.6219 18.864C53.3019 18.624 54.5139 18.144 55.2579 17.424C56.0019 16.68 56.3739 15.624 56.3739 14.256C56.3739 12.912 55.9899 11.88 55.2219 11.16C54.4779 10.44 53.2779 9.96004 51.6219 9.72004V18.864ZM39.0939 14.292C39.0939 15.612 39.4779 16.632 40.2459 17.352C41.0379 18.072 42.2379 18.564 43.8459 18.828V9.75604C42.1419 9.99604 40.9179 10.476 40.1739 11.196C39.4539 11.892 39.0939 12.924 39.0939 14.292Z" fill="#C4D2DC"/>
<path d="M95.1796 20.412V31.932H87.4036V27H73.0756V31.932H65.2996V20.412H66.0196C67.4836 20.412 68.5156 19.488 69.1156 17.64C69.7156 15.792 70.0996 13.068 70.2676 9.46804L70.5556 1.80004H91.8676V20.412H95.1796ZM77.6476 10.188C77.5516 12.612 77.3596 14.676 77.0716 16.38C76.7836 18.06 76.3396 19.404 75.7396 20.412H83.5156V8.38804H77.7196L77.6476 10.188Z" fill="#C4D2DC"/>
</svg>
