<svg width="91" height="27" viewBox="0 0 91 27" fill="none" xmlns="http://www.w3.org/2000/svg">
<path d="M23.6879 7.388H16.3079V26H7.95593V7.388H0.575928V0.799999H23.6879V7.388Z" fill="#C4D2DC"/>
<path d="M38.8102 26.576C36.1462 26.576 33.7462 26.024 31.6102 24.92C29.4742 23.792 27.7942 22.232 26.5702 20.24C25.3702 18.224 24.7702 15.944 24.7702 13.4C24.7702 10.856 25.3702 8.588 26.5702 6.596C27.7942 4.58 29.4742 3.02 31.6102 1.916C33.7462 0.787999 36.1462 0.223999 38.8102 0.223999C41.2582 0.223999 43.4422 0.656 45.3622 1.52C47.2822 2.384 48.8662 3.632 50.1142 5.264L44.7502 10.052C43.1902 8.084 41.3542 7.1 39.2422 7.1C37.4662 7.1 36.0382 7.676 34.9582 8.828C33.8782 9.956 33.3382 11.48 33.3382 13.4C33.3382 15.32 33.8782 16.856 34.9582 18.008C36.0382 19.136 37.4662 19.7 39.2422 19.7C41.3542 19.7 43.1902 18.716 44.7502 16.748L50.1142 21.536C48.8662 23.168 47.2822 24.416 45.3622 25.28C43.4422 26.144 41.2582 26.576 38.8102 26.576Z" fill="#C4D2DC"/>
<path d="M76.9896 16.892H74.7936V26H66.5136V16.892H64.2456L60.0696 26H50.3136L57.0816 12.752L50.6736 0.799999H59.5296L64.0296 10.196H66.5136V0.799999H74.7936V10.196H77.1336L81.7056 0.799999H90.5616L84.1896 12.752L90.9216 26H81.1656L76.9896 16.892Z" fill="#C4D2DC"/>
</svg>
